M48
;Layer_Color=9474304
;FILE_FORMAT=2:5
INCH,LZ
;TYPE=PLATED
T01F00S00C0.01378
T03F00S00C0.03346
T04F00S00C0.03500
T05F00S00C0.03622
T06F00S00C0.04724
T08F00S00C0.09055
T09F00S00C0.13780
T10F00S00C0.25591
;TYPE=NON_PLATED
T11F00S00C0.05906
%
T01
X0146Y004
Y0058
X0063551Y0071453
Y0134445
X0128169Y0136694
X0154812Y013925
X0163669Y0150102
X0163Y0161
X0141669Y0160102
X0145669Y0173102
X0124669Y0172102
Y010911
X0145669Y011011
X0141669Y009711
X0163Y0098008
X0163669Y008711
X0156Y0075
X0128169Y0073702
X0192063Y0098834
X0193Y0112008
X0213475Y0111803
X0209Y0099008
X0213669Y008611
X0225Y0088008
X0224669Y009311
X0226Y0117827
X0238012Y0120078
X0260669Y010211
X0262Y0071658
X0260669Y0165102
X0266Y0186729
X0226Y0181188
X0213475Y0174795
X0209Y0162
X0192732Y0161146
X0193Y0175
X0213669Y0149102
X0225Y0151
X0224669Y0156102
X0297569Y0178356
X0279528Y0291339
Y0295276
Y0334646
Y0374016
X0267717
X0246946Y0378055
X0237945Y0379205
Y0315968
X0256945
X0246946Y0294307
Y0267819
X0237945Y0268968
X0271654Y0267717
Y0255906
Y0244094
X0185039Y0299213
X0148521Y0294307
Y0267819
X013952Y0268968
Y0315968
X015852
X0148521Y0378055
X013952Y0379205
X0148521Y0404543
X013952Y0426205
X015852
X0185246Y0399543
X0246946Y0404543
X0237945Y0426205
X0256945
X0267717Y0437008
Y0452756
Y0468504
Y0484252
X0246946Y0488292
X0237945Y0489441
X0246946Y0514779
X0237945Y0536441
X0256945
X0185039Y0519685
X0148521Y0514779
Y0488292
X013952Y0489441
Y0536441
X015852
X0281496Y0517717
X0279528Y0513779
X0281496Y0509842
X0279528Y0484252
Y0468504
Y0452756
Y0437008
X0281496Y0409449
X0279528Y0405512
X0281496Y0401575
Y0620079
X0279528Y0624016
X0281496Y0627953
Y0663386
Y0673228
X0267717
X0256945Y0646677
X0237945
X0246946Y0625016
Y0598528
X0237945Y0599677
X0184239Y0620016
X0148521Y0625016
Y0598528
X013952Y0599677
Y0646677
X015852
X0148521Y0708764
X013952Y0709913
X0148521Y0735252
X013952Y0756913
Y0767717
X015852Y0756913
X0256945
X0246946Y0735252
Y0708764
X0237945Y0709913
X0267717Y0702756
X0281496
Y071063
Y0730315
X0279528Y0734252
X0281496Y0738189
T03
X0089Y0039843
Y0049685
T04
X0058Y0043843
Y0053843
X0201693Y025
X0211693
Y0277559
X0201693
Y0305118
X0211693
Y0332677
X0201693
Y0360236
X0211693
X0113268
X0103268
Y0332677
X0113268
Y0305118
X0103268
Y0277559
X0113268
Y025
X0103268
Y0387795
X0113268
Y0415354
X0103268
Y0442913
X0113268
Y0470472
X0103268
Y0498031
X0113268
Y0525591
X0103268
X0201693
X0211693
Y0498031
X0201693
Y0470472
X0211693
Y0442913
X0201693
Y0415354
X0211693
Y0387795
X0201693
Y055315
X0211693
Y0580709
X0201693
Y0608268
X0211693
Y0635827
X0201693
Y0663386
X0211693
Y0690945
X0201693
X0113268
X0103268
Y0663386
X0113268
Y0635827
X0103268
Y0608268
X0113268
Y0580709
X0103268
Y055315
X0113268
Y0718504
X0103268
Y0746063
X0113268
Y0773622
X0103268
X0201693
X0211693
Y0746063
X0201693
Y0718504
X0211693
T05
X0274524Y0041339
Y0051181
Y0059055
Y0068898
T06
X0011811Y0098425
X0031496Y0088583
Y007874
Y0108268
Y011811
X0031496Y0141732
Y0151575
Y017126
Y0181102
X0011811Y0161417
X008563Y0183118
X0095472
X0105315
Y0120126
X0095472
X008563
X0283465Y0120079
Y0110236
Y0139764
Y0149606
X030315Y0129921
T08
X0285193Y0029252
Y0080984
T09
X0299213Y0015748
X0015748
Y019685
X0299213
X0271654Y0354331
X0043307
X0271654Y0688976
X0043307
T10
X0082624Y0215
X0157624
X0232624
T11
X0011811Y007874
Y011811
X0011811Y0141732
Y0181102
X030315Y0149606
Y0110236
M30
