G04*
G04 #@! TF.GenerationSoftware,Altium Limited,Altium Designer,23.10.1 (27)*
G04*
G04 Layer_Physical_Order=2*
G04 Layer_Color=16711680*
%FSLAX25Y25*%
%MOIN*%
G70*
G04*
G04 #@! TF.SameCoordinates,DEC2BE8A-3C9D-4CA9-A4ED-9AED73E2F86B*
G04*
G04*
G04 #@! TF.FilePolarity,Positive*
G04*
G01*
G75*
%ADD15C,0.01000*%
%ADD17C,0.00800*%
%ADD56C,0.06693*%
%ADD57R,0.06693X0.06693*%
%ADD66C,0.02000*%
%ADD83C,0.39370*%
%ADD84O,0.06496X0.16535*%
%ADD85O,0.06496X0.15158*%
%ADD86O,0.15158X0.06496*%
%ADD87C,0.07874*%
%ADD88C,0.12402*%
%ADD89C,0.06299*%
%ADD90R,0.06299X0.06299*%
%ADD91R,0.05512X0.05512*%
%ADD92C,0.05512*%
%ADD93R,0.12008X0.11221*%
%ADD94R,0.08071X0.08071*%
%ADD95C,0.08071*%
%ADD96R,0.05512X0.05512*%
%ADD97C,0.21654*%
%ADD98C,0.02756*%
%ADD99C,0.04000*%
%ADD100R,0.18428X0.37985*%
%ADD101R,0.18428X0.33000*%
G36*
X263779Y769975D02*
Y758874D01*
X263779Y711213D01*
Y700000D01*
Y698068D01*
X263123Y697507D01*
X261894Y696067D01*
X260905Y694453D01*
X260180Y692704D01*
X259738Y690864D01*
X259590Y688976D01*
X259738Y687089D01*
X260180Y685248D01*
X260905Y683499D01*
X261894Y681885D01*
X263123Y680446D01*
X263779Y679885D01*
Y677953D01*
Y673228D01*
X263779Y371000D01*
Y365354D01*
Y363422D01*
X263123Y362861D01*
X261894Y361422D01*
X260905Y359808D01*
X260180Y358059D01*
X259738Y356218D01*
X259590Y354331D01*
X259738Y352444D01*
X260180Y350603D01*
X260905Y348854D01*
X261894Y347240D01*
X263123Y345800D01*
X263779Y345240D01*
Y343308D01*
Y338000D01*
X263779Y213822D01*
X254355D01*
X253534Y214698D01*
X253554Y215000D01*
X253375Y217732D01*
X252841Y220417D01*
X251961Y223009D01*
X250750Y225465D01*
X249229Y227741D01*
X247424Y229800D01*
X245366Y231605D01*
X243089Y233126D01*
X240634Y234337D01*
X238041Y235217D01*
X235356Y235751D01*
X232624Y235930D01*
X229892Y235751D01*
X227207Y235217D01*
X224615Y234337D01*
X222160Y233126D01*
X219883Y231605D01*
X217825Y229800D01*
X216020Y227741D01*
X214499Y225465D01*
X213288Y223009D01*
X212408Y220417D01*
X211874Y217732D01*
X211695Y215000D01*
X211794Y213474D01*
X210974Y212598D01*
X180221D01*
X178344Y217891D01*
X177841Y220417D01*
X176961Y223009D01*
X175750Y225465D01*
X174229Y227741D01*
X172424Y229800D01*
X170366Y231605D01*
X168089Y233126D01*
X165634Y234337D01*
X163041Y235217D01*
X160356Y235751D01*
X157624Y235930D01*
X154893Y235751D01*
X152207Y235217D01*
X149615Y234337D01*
X147160Y233126D01*
X144883Y231605D01*
X142825Y229800D01*
X141020Y227741D01*
X139499Y225465D01*
X138288Y223009D01*
X137408Y220417D01*
X136874Y217732D01*
X136695Y215000D01*
X136795Y213474D01*
X135974Y212598D01*
X103928Y212598D01*
X103472Y213749D01*
X103554Y215000D01*
X103375Y217732D01*
X102841Y220417D01*
X101961Y223009D01*
X100750Y225465D01*
X99229Y227741D01*
X97424Y229800D01*
X95366Y231605D01*
X93089Y233126D01*
X90634Y234337D01*
X88041Y235217D01*
X85356Y235751D01*
X82624Y235930D01*
X79892Y235751D01*
X77207Y235217D01*
X74615Y234337D01*
X72159Y233126D01*
X69883Y231605D01*
X67825Y229800D01*
X66020Y227741D01*
X64499Y225465D01*
X63288Y223009D01*
X62408Y220417D01*
X61874Y217732D01*
X61695Y215000D01*
X61714Y214698D01*
X60894Y213822D01*
X55397D01*
Y228490D01*
X81022Y254115D01*
X81535Y254784D01*
X81858Y255562D01*
X81968Y256398D01*
X81968Y746935D01*
X94050Y759017D01*
X134048D01*
X134883Y759127D01*
X135064Y759202D01*
X136264Y758484D01*
Y756942D01*
X136374Y756106D01*
X136696Y755328D01*
X137209Y754660D01*
X137238Y754631D01*
X137906Y754118D01*
X138684Y753796D01*
X139520Y753686D01*
X140355Y753796D01*
X141134Y754118D01*
X141802Y754631D01*
X142315Y755299D01*
X142637Y756078D01*
X142747Y756913D01*
X142719Y757130D01*
Y767688D01*
X142609Y768523D01*
X142286Y769302D01*
X141773Y769970D01*
X141105Y770483D01*
X140327Y770806D01*
X139491Y770916D01*
X138656Y770806D01*
X137877Y770483D01*
X137209Y769970D01*
X132711Y765472D01*
X92713D01*
X91878Y765362D01*
X91099Y765040D01*
X90431Y764527D01*
X76458Y750554D01*
X75945Y749886D01*
X75622Y749107D01*
X75512Y748272D01*
X75512Y257734D01*
X49887Y232109D01*
X49374Y231441D01*
X49052Y230662D01*
X48942Y229827D01*
Y213822D01*
X39905D01*
X39437Y213729D01*
X39040Y213464D01*
X38775Y213067D01*
X38681Y212598D01*
X37481Y212598D01*
X31530D01*
X31530Y212598D01*
Y348258D01*
X32730Y348573D01*
X33547Y347240D01*
X34777Y345800D01*
X36216Y344571D01*
X37830Y343582D01*
X39579Y342857D01*
X41420Y342415D01*
X43307Y342267D01*
X45194Y342415D01*
X47035Y342857D01*
X48784Y343582D01*
X50398Y344571D01*
X51838Y345800D01*
X53067Y347240D01*
X54056Y348854D01*
X54781Y350603D01*
X55223Y352444D01*
X55371Y354331D01*
X55223Y356218D01*
X54781Y358059D01*
X54056Y359808D01*
X53067Y361422D01*
X51838Y362861D01*
X50398Y364091D01*
X48784Y365080D01*
X47035Y365804D01*
X45194Y366246D01*
X43307Y366395D01*
X41420Y366246D01*
X39579Y365804D01*
X37830Y365080D01*
X36216Y364091D01*
X34777Y362861D01*
X33547Y361422D01*
X32730Y360088D01*
X31530Y360403D01*
Y682904D01*
X32730Y683219D01*
X33547Y681885D01*
X34777Y680446D01*
X36216Y679216D01*
X37830Y678227D01*
X39579Y677503D01*
X41420Y677061D01*
X43307Y676912D01*
X45194Y677061D01*
X47035Y677503D01*
X48784Y678227D01*
X50398Y679216D01*
X51838Y680446D01*
X53067Y681885D01*
X54056Y683499D01*
X54781Y685248D01*
X55223Y687089D01*
X55371Y688976D01*
X55223Y690864D01*
X54781Y692704D01*
X54056Y694453D01*
X53067Y696067D01*
X51838Y697507D01*
X50398Y698736D01*
X48784Y699725D01*
X47035Y700450D01*
X45194Y700892D01*
X43307Y701040D01*
X41420Y700892D01*
X39579Y700450D01*
X37830Y699725D01*
X36216Y698736D01*
X34777Y697507D01*
X33547Y696067D01*
X32730Y694734D01*
X31530Y695049D01*
Y750324D01*
X64637Y783431D01*
X250324D01*
X263779Y769975D01*
D02*
G37*
G36*
X283431Y750324D02*
Y694585D01*
X282231Y694346D01*
X282224Y694362D01*
X281251Y695950D01*
X280042Y697365D01*
X278627Y698574D01*
X277039Y699547D01*
X275320Y700259D01*
X273509Y700694D01*
X272154Y700800D01*
Y688976D01*
Y677152D01*
X273509Y677259D01*
X275320Y677694D01*
X277039Y678406D01*
X278627Y679379D01*
X280042Y680588D01*
X281251Y682003D01*
X282224Y683591D01*
X282231Y683607D01*
X283431Y683368D01*
Y359939D01*
X282231Y359700D01*
X282224Y359717D01*
X281251Y361304D01*
X280042Y362719D01*
X278627Y363929D01*
X277039Y364901D01*
X275320Y365614D01*
X273509Y366048D01*
X272154Y366155D01*
Y354331D01*
Y342507D01*
X273509Y342614D01*
X275320Y343048D01*
X277039Y343760D01*
X278627Y344733D01*
X280042Y345942D01*
X281251Y347358D01*
X282224Y348945D01*
X282231Y348961D01*
X283431Y348723D01*
Y213822D01*
X265003D01*
X265003Y338000D01*
Y343308D01*
X266050Y343894D01*
X266268Y343760D01*
X267988Y343048D01*
X269798Y342614D01*
X271154Y342507D01*
Y354331D01*
Y366155D01*
X269798Y366048D01*
X267988Y365614D01*
X266268Y364901D01*
X266050Y364768D01*
X265003Y365354D01*
Y371000D01*
X265003Y673228D01*
Y677953D01*
X266050Y678540D01*
X266268Y678406D01*
X267988Y677694D01*
X269798Y677259D01*
X271154Y677152D01*
Y688976D01*
Y700800D01*
X269798Y700694D01*
X267988Y700259D01*
X266268Y699547D01*
X266050Y699413D01*
X265003Y700000D01*
Y711213D01*
X265003Y767183D01*
X266112Y767643D01*
X283431Y750324D01*
D02*
G37*
G36*
X184150Y199085D02*
X183712Y198108D01*
X183566Y197984D01*
X182911Y197826D01*
X181747Y197636D01*
X168286Y196195D01*
X159337Y195390D01*
X175988Y222091D01*
X184150Y199085D01*
D02*
G37*
G36*
X105245Y193087D02*
X104537Y192380D01*
X104370Y192332D01*
X103692Y192364D01*
X100800Y192668D01*
X79853Y195511D01*
X102113Y217772D01*
X105245Y193087D01*
D02*
G37*
G36*
X264936Y188509D02*
X265023Y188447D01*
X265124Y188389D01*
X265238Y188335D01*
X265365Y188285D01*
X265504Y188238D01*
X265823Y188158D01*
X266002Y188124D01*
X266194Y188094D01*
X264636Y186535D01*
X264605Y186727D01*
X264491Y187225D01*
X264445Y187365D01*
X264394Y187492D01*
X264340Y187605D01*
X264282Y187706D01*
X264220Y187794D01*
X264154Y187868D01*
X264861Y188575D01*
X264936Y188509D01*
D02*
G37*
G36*
X296741Y177254D02*
X296584Y177369D01*
X296151Y177639D01*
X296020Y177706D01*
X295894Y177760D01*
X295776Y177802D01*
X295663Y177832D01*
X295557Y177850D01*
X295458Y177856D01*
Y178856D01*
X295557Y178862D01*
X295663Y178880D01*
X295776Y178910D01*
X295894Y178952D01*
X296020Y179007D01*
X296151Y179073D01*
X296433Y179241D01*
X296584Y179344D01*
X296741Y179458D01*
Y177254D01*
D02*
G37*
G36*
X283566Y211571D02*
X283963Y210613D01*
X284594Y209791D01*
X285416Y209159D01*
X286374Y208763D01*
X287402Y208628D01*
X293139D01*
X293455Y207428D01*
X292122Y206610D01*
X290682Y205381D01*
X289453Y203941D01*
X288463Y202327D01*
X287739Y200578D01*
X287297Y198738D01*
X287149Y196850D01*
X287297Y194963D01*
X287739Y193122D01*
X288463Y191374D01*
X289453Y189759D01*
X290682Y188320D01*
X292122Y187091D01*
X293736Y186101D01*
X295485Y185377D01*
X297325Y184935D01*
X299213Y184786D01*
X301100Y184935D01*
X302941Y185377D01*
X304690Y186101D01*
X306304Y187091D01*
X307743Y188320D01*
X308973Y189759D01*
X309790Y191093D01*
X310990Y190777D01*
Y21821D01*
X309790Y21506D01*
X308973Y22839D01*
X307743Y24279D01*
X306304Y25508D01*
X304690Y26497D01*
X302941Y27222D01*
X301100Y27663D01*
X299213Y27812D01*
X297325Y27663D01*
X295485Y27222D01*
X293736Y26497D01*
X293256Y26203D01*
X292240Y26988D01*
X292487Y27801D01*
X292630Y29252D01*
X292487Y30703D01*
X292063Y32098D01*
X291376Y33384D01*
X290452Y34510D01*
X289324Y35435D01*
X288039Y36123D01*
X286644Y36546D01*
X285193Y36689D01*
X283742Y36546D01*
X282347Y36123D01*
X281061Y35435D01*
X279935Y34510D01*
X279010Y33384D01*
X278323Y32098D01*
X277899Y30703D01*
X277756Y29252D01*
X277899Y27801D01*
X278323Y26406D01*
X279010Y25120D01*
X279935Y23993D01*
X281061Y23069D01*
X282347Y22381D01*
X283742Y21958D01*
X285193Y21815D01*
X286644Y21958D01*
X287702Y22279D01*
X288442Y21484D01*
X288519Y21315D01*
X288463Y21225D01*
X287739Y19476D01*
X287297Y17635D01*
X287149Y15748D01*
X287297Y13861D01*
X287739Y12020D01*
X288463Y10271D01*
X289453Y8657D01*
X290682Y7218D01*
X292122Y5988D01*
X293455Y5171D01*
X293139Y3971D01*
X21821D01*
X21506Y5171D01*
X22839Y5988D01*
X24279Y7218D01*
X25508Y8657D01*
X26497Y10271D01*
X27222Y12020D01*
X27663Y13861D01*
X27812Y15748D01*
X27663Y17635D01*
X27222Y19476D01*
X26497Y21225D01*
X25508Y22839D01*
X24279Y24279D01*
X23003Y25368D01*
X23106Y25930D01*
X23477Y26516D01*
X24213Y26419D01*
X32874D01*
X34035Y26572D01*
X35117Y27020D01*
X36046Y27733D01*
X36759Y28662D01*
X37207Y29744D01*
X37360Y30906D01*
X37275Y31556D01*
X37382Y31843D01*
X37979Y32547D01*
X38240Y32709D01*
X82377D01*
X83212Y32819D01*
X83991Y33142D01*
X84659Y33655D01*
X86300Y35296D01*
X93546D01*
Y44389D01*
X91230D01*
X90992Y45589D01*
X91293Y45714D01*
X92243Y46442D01*
X92971Y47392D01*
X93429Y48498D01*
X93586Y49685D01*
X93429Y50872D01*
X92971Y51978D01*
X92243Y52928D01*
X91293Y53656D01*
X90187Y54115D01*
X89000Y54271D01*
X87813Y54115D01*
X86707Y53656D01*
X85757Y52928D01*
X85029Y51978D01*
X84571Y50872D01*
X84414Y49685D01*
X84571Y48498D01*
X85029Y47392D01*
X85757Y46442D01*
X86707Y45714D01*
X87008Y45589D01*
X86770Y44389D01*
X84453D01*
Y42473D01*
X84000Y42125D01*
X81040Y39165D01*
X60179D01*
X59941Y40365D01*
X59995Y40387D01*
X60821Y41021D01*
X61456Y41848D01*
X61854Y42810D01*
X61990Y43843D01*
X61854Y44875D01*
X61456Y45838D01*
X60821Y46664D01*
X59995Y47298D01*
X59033Y47697D01*
X58000Y47833D01*
X56967Y47697D01*
X56005Y47298D01*
X55179Y46664D01*
X54545Y45838D01*
X54146Y44875D01*
X54010Y43843D01*
X54146Y42810D01*
X54545Y41848D01*
X55179Y41021D01*
X56005Y40387D01*
X56059Y40365D01*
X55821Y39165D01*
X40092D01*
X40057Y39221D01*
X40071Y39379D01*
X40696Y40466D01*
X41319Y40548D01*
X42401Y40997D01*
X43330Y41710D01*
X44043Y42639D01*
X44491Y43721D01*
X44644Y44882D01*
Y53543D01*
X44491Y54704D01*
X44043Y55787D01*
X43330Y56716D01*
X42401Y57429D01*
X41319Y57877D01*
X40157Y58030D01*
X38996Y57877D01*
X37914Y57429D01*
X36985Y56716D01*
X36272Y55787D01*
X35824Y54704D01*
X35671Y53543D01*
Y44882D01*
X35770Y44134D01*
X34633Y43573D01*
X26705Y51502D01*
Y74575D01*
X27581Y74965D01*
X27905Y75021D01*
X28905Y74253D01*
X30155Y73735D01*
X31496Y73559D01*
X32837Y73735D01*
X34087Y74253D01*
X35160Y75076D01*
X35983Y76149D01*
X36501Y77399D01*
X36677Y78740D01*
X36501Y80081D01*
X35983Y81331D01*
X35160Y82404D01*
X34451Y82948D01*
X34357Y83245D01*
Y84078D01*
X34451Y84375D01*
X35160Y84919D01*
X35983Y85992D01*
X36501Y87242D01*
X36677Y88583D01*
X36501Y89924D01*
X35983Y91173D01*
X35160Y92247D01*
X34087Y93070D01*
X32837Y93588D01*
X31496Y93764D01*
X30155Y93588D01*
X28905Y93070D01*
X27905Y92302D01*
X27581Y92358D01*
X26705Y92748D01*
Y104102D01*
X27581Y104492D01*
X27905Y104549D01*
X28905Y103781D01*
X30155Y103263D01*
X31496Y103086D01*
X32837Y103263D01*
X34087Y103781D01*
X35160Y104604D01*
X35983Y105677D01*
X36501Y106927D01*
X36677Y108268D01*
X36501Y109609D01*
X35983Y110859D01*
X35160Y111932D01*
X34451Y112475D01*
X34357Y112773D01*
Y113605D01*
X34451Y113903D01*
X35160Y114447D01*
X35983Y115520D01*
X36501Y116769D01*
X36677Y118110D01*
X36501Y119451D01*
X35983Y120701D01*
X35160Y121774D01*
X34087Y122598D01*
X32837Y123115D01*
X31496Y123292D01*
X30155Y123115D01*
X28905Y122598D01*
X27905Y121830D01*
X27581Y121886D01*
X26705Y122276D01*
Y137567D01*
X27582Y137957D01*
X27905Y138013D01*
X28905Y137245D01*
X30155Y136727D01*
X31496Y136551D01*
X32837Y136727D01*
X34087Y137245D01*
X35160Y138068D01*
X35983Y139141D01*
X36501Y140391D01*
X36678Y141732D01*
X36501Y143073D01*
X35983Y144323D01*
X35160Y145396D01*
X34451Y145940D01*
X34357Y146237D01*
Y147070D01*
X34451Y147367D01*
X35160Y147911D01*
X35983Y148984D01*
X36501Y150234D01*
X36678Y151575D01*
X36501Y152916D01*
X35983Y154165D01*
X35160Y155239D01*
X34087Y156062D01*
X32837Y156580D01*
X31496Y156756D01*
X30155Y156580D01*
X28905Y156062D01*
X27905Y155294D01*
X27582Y155350D01*
X26705Y155740D01*
Y167095D01*
X27582Y167485D01*
X27905Y167541D01*
X28905Y166773D01*
X30155Y166255D01*
X31496Y166078D01*
X32837Y166255D01*
X34087Y166773D01*
X35160Y167596D01*
X35983Y168669D01*
X36501Y169919D01*
X36678Y171260D01*
X36501Y172601D01*
X35983Y173851D01*
X35160Y174924D01*
X34451Y175467D01*
X34357Y175765D01*
Y176597D01*
X34451Y176895D01*
X35160Y177439D01*
X35983Y178512D01*
X36501Y179761D01*
X36678Y181102D01*
X36501Y182443D01*
X35983Y183693D01*
X35160Y184766D01*
X34087Y185590D01*
X32837Y186107D01*
X32500Y186152D01*
X32070Y187418D01*
X38960Y194308D01*
X39472Y194976D01*
X39795Y195755D01*
X39905Y196590D01*
Y212478D01*
X39925Y212578D01*
X40025Y212598D01*
X61852D01*
X61874Y212268D01*
X62408Y209583D01*
X63288Y206991D01*
X64499Y204535D01*
X66020Y202259D01*
X67825Y200200D01*
X69883Y198395D01*
X72159Y196874D01*
X74615Y195663D01*
X77207Y194783D01*
X79892Y194249D01*
X82624Y194070D01*
X83825Y194149D01*
X100690Y191860D01*
X100703Y191861D01*
X100715Y191857D01*
X103606Y191552D01*
X103620Y191554D01*
X105711Y189462D01*
X105252Y188354D01*
X100080D01*
Y187628D01*
X99940Y187504D01*
X98880Y187103D01*
X98113Y187691D01*
X96839Y188219D01*
X95472Y188399D01*
X94106Y188219D01*
X92832Y187691D01*
X91738Y186852D01*
X91278Y186252D01*
X91154Y186195D01*
X89949D01*
X89825Y186252D01*
X89364Y186852D01*
X88270Y187691D01*
X86997Y188219D01*
X85630Y188399D01*
X84263Y188219D01*
X82990Y187691D01*
X81896Y186852D01*
X81057Y185758D01*
X80529Y184485D01*
X80349Y183118D01*
X80529Y181752D01*
X81057Y180478D01*
X81896Y179384D01*
X82990Y178545D01*
X84263Y178017D01*
X85630Y177838D01*
X86997Y178017D01*
X88270Y178545D01*
X89364Y179384D01*
X89825Y179985D01*
X89949Y180042D01*
X91154D01*
X91278Y179985D01*
X91738Y179384D01*
X92832Y178545D01*
X94106Y178017D01*
X95472Y177838D01*
X96839Y178017D01*
X98113Y178545D01*
X98880Y179133D01*
X99940Y178732D01*
X100080Y178608D01*
Y177883D01*
X110550D01*
Y187374D01*
X262433D01*
X263400Y186729D01*
X263488Y186056D01*
X263748Y185429D01*
X264161Y184891D01*
X264700Y184477D01*
X265327Y184218D01*
X266000Y184129D01*
X266673Y184218D01*
X267300Y184477D01*
X267839Y184891D01*
X268252Y185429D01*
X268512Y186056D01*
X268600Y186729D01*
X268512Y187402D01*
X268252Y188030D01*
X267839Y188568D01*
X267300Y188981D01*
X266673Y189241D01*
X266000Y189330D01*
X265868Y189312D01*
X264991Y190189D01*
X265091Y190777D01*
X265427Y191389D01*
X267688D01*
X281947Y177130D01*
X282509Y176755D01*
X283172Y176623D01*
X295649D01*
X295730Y176517D01*
X296269Y176104D01*
X296896Y175845D01*
X297569Y175756D01*
X298242Y175845D01*
X298869Y176104D01*
X299407Y176517D01*
X299820Y177056D01*
X300080Y177683D01*
X300169Y178356D01*
X300080Y179029D01*
X299820Y179656D01*
X299407Y180195D01*
X298869Y180608D01*
X298242Y180868D01*
X297569Y180956D01*
X296896Y180868D01*
X296269Y180608D01*
X295730Y180195D01*
X295649Y180089D01*
X283890D01*
X269632Y194348D01*
X269070Y194724D01*
X268406Y194856D01*
X241709D01*
X241430Y196056D01*
X243089Y196874D01*
X245366Y198395D01*
X247424Y200200D01*
X249229Y202259D01*
X250750Y204535D01*
X251961Y206991D01*
X252841Y209583D01*
X253375Y212268D01*
X253397Y212598D01*
X283431D01*
X283566Y211571D01*
D02*
G37*
G36*
X88605Y36520D02*
X88401Y36852D01*
X88136Y37065D01*
X87809Y37161D01*
X87420Y37138D01*
X86970Y36998D01*
X86458Y36739D01*
X85884Y36362D01*
X85248Y35867D01*
X84550Y35254D01*
X83791Y34523D01*
X81423Y37811D01*
X82229Y38629D01*
X84987Y41780D01*
X85284Y42222D01*
X85496Y42603D01*
X85623Y42921D01*
X85666Y43177D01*
X88605Y36520D01*
D02*
G37*
%LPC*%
G36*
X205649Y777578D02*
X197737D01*
Y769666D01*
X205649D01*
Y777578D01*
D02*
G37*
G36*
X107224D02*
X99312D01*
Y769666D01*
X107224D01*
Y777578D01*
D02*
G37*
G36*
X211693Y777612D02*
X210660Y777476D01*
X209698Y777077D01*
X208872Y776443D01*
X208238Y775617D01*
X207839Y774655D01*
X207703Y773622D01*
X207839Y772589D01*
X208238Y771627D01*
X208872Y770801D01*
X209698Y770166D01*
X210660Y769768D01*
X211693Y769632D01*
X212726Y769768D01*
X213688Y770166D01*
X214514Y770801D01*
X215148Y771627D01*
X215547Y772589D01*
X215683Y773622D01*
X215547Y774655D01*
X215148Y775617D01*
X214514Y776443D01*
X213688Y777077D01*
X212726Y777476D01*
X211693Y777612D01*
D02*
G37*
G36*
X113268D02*
X112235Y777476D01*
X111273Y777077D01*
X110446Y776443D01*
X109812Y775617D01*
X109414Y774655D01*
X109278Y773622D01*
X109414Y772589D01*
X109812Y771627D01*
X110446Y770801D01*
X111273Y770166D01*
X112235Y769768D01*
X113268Y769632D01*
X114301Y769768D01*
X115263Y770166D01*
X116089Y770801D01*
X116723Y771627D01*
X117122Y772589D01*
X117258Y773622D01*
X117122Y774655D01*
X116723Y775617D01*
X116089Y776443D01*
X115263Y777077D01*
X114301Y777476D01*
X113268Y777612D01*
D02*
G37*
G36*
X205649Y750019D02*
X197737D01*
Y742107D01*
X205649D01*
Y750019D01*
D02*
G37*
G36*
X107224D02*
X99312D01*
Y742107D01*
X107224D01*
Y750019D01*
D02*
G37*
G36*
X211693Y750053D02*
X210660Y749917D01*
X209698Y749518D01*
X208872Y748884D01*
X208238Y748058D01*
X207839Y747096D01*
X207703Y746063D01*
X207839Y745030D01*
X208238Y744068D01*
X208872Y743242D01*
X209698Y742607D01*
X210660Y742209D01*
X211693Y742073D01*
X212726Y742209D01*
X213688Y742607D01*
X214514Y743242D01*
X215148Y744068D01*
X215547Y745030D01*
X215683Y746063D01*
X215547Y747096D01*
X215148Y748058D01*
X214514Y748884D01*
X213688Y749518D01*
X212726Y749917D01*
X211693Y750053D01*
D02*
G37*
G36*
X113268D02*
X112235Y749917D01*
X111273Y749518D01*
X110446Y748884D01*
X109812Y748058D01*
X109414Y747096D01*
X109278Y746063D01*
X109414Y745030D01*
X109812Y744068D01*
X110446Y743242D01*
X111273Y742607D01*
X112235Y742209D01*
X113268Y742073D01*
X114301Y742209D01*
X115263Y742607D01*
X116089Y743242D01*
X116723Y744068D01*
X117122Y745030D01*
X117258Y746063D01*
X117122Y747096D01*
X116723Y748058D01*
X116089Y748884D01*
X115263Y749518D01*
X114301Y749917D01*
X113268Y750053D01*
D02*
G37*
G36*
X205649Y722460D02*
X197737D01*
Y714548D01*
X205649D01*
Y722460D01*
D02*
G37*
G36*
X107224D02*
X99312D01*
Y714548D01*
X107224D01*
Y722460D01*
D02*
G37*
G36*
X211693Y722494D02*
X210660Y722358D01*
X209698Y721959D01*
X208872Y721325D01*
X208238Y720499D01*
X207839Y719537D01*
X207703Y718504D01*
X207839Y717471D01*
X208238Y716509D01*
X208872Y715683D01*
X209698Y715049D01*
X210660Y714650D01*
X211693Y714514D01*
X212726Y714650D01*
X213688Y715049D01*
X214514Y715683D01*
X215148Y716509D01*
X215547Y717471D01*
X215683Y718504D01*
X215547Y719537D01*
X215148Y720499D01*
X214514Y721325D01*
X213688Y721959D01*
X212726Y722358D01*
X211693Y722494D01*
D02*
G37*
G36*
X113268D02*
X112235Y722358D01*
X111273Y721959D01*
X110446Y721325D01*
X109812Y720499D01*
X109414Y719537D01*
X109278Y718504D01*
X109414Y717471D01*
X109812Y716509D01*
X110446Y715683D01*
X111273Y715049D01*
X112235Y714650D01*
X113268Y714514D01*
X114301Y714650D01*
X115263Y715049D01*
X116089Y715683D01*
X116723Y716509D01*
X117122Y717471D01*
X117258Y718504D01*
X117122Y719537D01*
X116723Y720499D01*
X116089Y721325D01*
X115263Y721959D01*
X114301Y722358D01*
X113268Y722494D01*
D02*
G37*
G36*
X237945Y712513D02*
X237272Y712425D01*
X236645Y712165D01*
X236106Y711752D01*
X235693Y711213D01*
X235433Y710586D01*
X235345Y709913D01*
X235433Y709240D01*
X235693Y708613D01*
X236106Y708075D01*
X236314Y707915D01*
Y648675D01*
X236106Y648516D01*
X235693Y647977D01*
X235433Y647350D01*
X235345Y646677D01*
X235433Y646004D01*
X235693Y645377D01*
X236106Y644838D01*
X236645Y644425D01*
X237272Y644165D01*
X237945Y644077D01*
X238618Y644165D01*
X239245Y644425D01*
X239784Y644838D01*
X240197Y645377D01*
X240457Y646004D01*
X240545Y646677D01*
X240457Y647350D01*
X240197Y647977D01*
X239784Y648516D01*
X239576Y648675D01*
Y707915D01*
X239784Y708075D01*
X239943Y708282D01*
X242543D01*
X243215Y707611D01*
X243744Y707257D01*
X244368Y707133D01*
X244948D01*
X245107Y706925D01*
X245646Y706512D01*
X246273Y706252D01*
X246946Y706164D01*
X247619Y706252D01*
X248246Y706512D01*
X248785Y706925D01*
X249198Y707464D01*
X249458Y708091D01*
X249546Y708764D01*
X249458Y709437D01*
X249198Y710064D01*
X248785Y710603D01*
X248246Y711016D01*
X247619Y711276D01*
X246946Y711364D01*
X246273Y711276D01*
X245646Y711016D01*
X245107Y710603D01*
X244853Y710586D01*
X244372Y711067D01*
X243843Y711420D01*
X243219Y711545D01*
X239943D01*
X239784Y711752D01*
X239245Y712165D01*
X238618Y712425D01*
X237945Y712513D01*
D02*
G37*
G36*
X139520D02*
X138847Y712425D01*
X138220Y712165D01*
X137681Y711752D01*
X137268Y711213D01*
X137008Y710586D01*
X136920Y709913D01*
X137008Y709240D01*
X137268Y708613D01*
X137681Y708075D01*
X137888Y707915D01*
Y648675D01*
X137681Y648516D01*
X137268Y647977D01*
X137008Y647350D01*
X136920Y646677D01*
X137008Y646004D01*
X137268Y645377D01*
X137681Y644838D01*
X138220Y644425D01*
X138847Y644165D01*
X139520Y644077D01*
X140193Y644165D01*
X140820Y644425D01*
X141358Y644838D01*
X141772Y645377D01*
X142031Y646004D01*
X142120Y646677D01*
X142031Y647350D01*
X141772Y647977D01*
X141358Y648516D01*
X141151Y648675D01*
Y707094D01*
X141198Y707133D01*
X146523D01*
X146682Y706925D01*
X147221Y706512D01*
X147848Y706252D01*
X148521Y706164D01*
X149194Y706252D01*
X149821Y706512D01*
X150359Y706925D01*
X150773Y707464D01*
X151032Y708091D01*
X151121Y708764D01*
X151032Y709437D01*
X150773Y710064D01*
X150359Y710603D01*
X149821Y711016D01*
X149194Y711276D01*
X148521Y711364D01*
X147848Y711276D01*
X147221Y711016D01*
X146682Y710603D01*
X146523Y710395D01*
X142057D01*
X142031Y710586D01*
X141772Y711213D01*
X141358Y711752D01*
X140820Y712165D01*
X140193Y712425D01*
X139520Y712513D01*
D02*
G37*
G36*
X205649Y694901D02*
X197737D01*
Y686989D01*
X205649D01*
Y694901D01*
D02*
G37*
G36*
X107224D02*
X99312D01*
Y686989D01*
X107224D01*
Y694901D01*
D02*
G37*
G36*
X211693Y694935D02*
X210660Y694799D01*
X209698Y694400D01*
X208872Y693766D01*
X208238Y692940D01*
X207839Y691978D01*
X207703Y690945D01*
X207839Y689912D01*
X208238Y688950D01*
X208872Y688123D01*
X209698Y687489D01*
X210660Y687091D01*
X211693Y686955D01*
X212726Y687091D01*
X213688Y687489D01*
X214514Y688123D01*
X215148Y688950D01*
X215547Y689912D01*
X215683Y690945D01*
X215547Y691978D01*
X215148Y692940D01*
X214514Y693766D01*
X213688Y694400D01*
X212726Y694799D01*
X211693Y694935D01*
D02*
G37*
G36*
X113268D02*
X112235Y694799D01*
X111273Y694400D01*
X110446Y693766D01*
X109812Y692940D01*
X109414Y691978D01*
X109278Y690945D01*
X109414Y689912D01*
X109812Y688950D01*
X110446Y688123D01*
X111273Y687489D01*
X112235Y687091D01*
X113268Y686955D01*
X114301Y687091D01*
X115263Y687489D01*
X116089Y688123D01*
X116723Y688950D01*
X117122Y689912D01*
X117258Y690945D01*
X117122Y691978D01*
X116723Y692940D01*
X116089Y693766D01*
X115263Y694400D01*
X114301Y694799D01*
X113268Y694935D01*
D02*
G37*
G36*
X205649Y667342D02*
X197737D01*
Y659430D01*
X205649D01*
Y667342D01*
D02*
G37*
G36*
X107224D02*
X99312D01*
Y659430D01*
X107224D01*
Y667342D01*
D02*
G37*
G36*
X211693Y667376D02*
X210660Y667240D01*
X209698Y666841D01*
X208872Y666207D01*
X208238Y665381D01*
X207839Y664419D01*
X207703Y663386D01*
X207839Y662353D01*
X208238Y661391D01*
X208872Y660564D01*
X209698Y659930D01*
X210660Y659532D01*
X211693Y659396D01*
X212726Y659532D01*
X213688Y659930D01*
X214514Y660564D01*
X215148Y661391D01*
X215547Y662353D01*
X215683Y663386D01*
X215547Y664419D01*
X215148Y665381D01*
X214514Y666207D01*
X213688Y666841D01*
X212726Y667240D01*
X211693Y667376D01*
D02*
G37*
G36*
X113268D02*
X112235Y667240D01*
X111273Y666841D01*
X110446Y666207D01*
X109812Y665381D01*
X109414Y664419D01*
X109278Y663386D01*
X109414Y662353D01*
X109812Y661391D01*
X110446Y660564D01*
X111273Y659930D01*
X112235Y659532D01*
X113268Y659396D01*
X114301Y659532D01*
X115263Y659930D01*
X116089Y660564D01*
X116723Y661391D01*
X117122Y662353D01*
X117258Y663386D01*
X117122Y664419D01*
X116723Y665381D01*
X116089Y666207D01*
X115263Y666841D01*
X114301Y667240D01*
X113268Y667376D01*
D02*
G37*
G36*
X205649Y639783D02*
X197737D01*
Y631871D01*
X205649D01*
Y639783D01*
D02*
G37*
G36*
X107224D02*
X99312D01*
Y631871D01*
X107224D01*
Y639783D01*
D02*
G37*
G36*
X211693Y639817D02*
X210660Y639681D01*
X209698Y639282D01*
X208872Y638648D01*
X208238Y637822D01*
X207839Y636860D01*
X207703Y635827D01*
X207839Y634794D01*
X208238Y633832D01*
X208872Y633005D01*
X209698Y632371D01*
X210660Y631973D01*
X211693Y631837D01*
X212726Y631973D01*
X213688Y632371D01*
X214514Y633005D01*
X215148Y633832D01*
X215547Y634794D01*
X215683Y635827D01*
X215547Y636860D01*
X215148Y637822D01*
X214514Y638648D01*
X213688Y639282D01*
X212726Y639681D01*
X211693Y639817D01*
D02*
G37*
G36*
X113268D02*
X112235Y639681D01*
X111273Y639282D01*
X110446Y638648D01*
X109812Y637822D01*
X109414Y636860D01*
X109278Y635827D01*
X109414Y634794D01*
X109812Y633832D01*
X110446Y633005D01*
X111273Y632371D01*
X112235Y631973D01*
X113268Y631837D01*
X114301Y631973D01*
X115263Y632371D01*
X116089Y633005D01*
X116723Y633832D01*
X117122Y634794D01*
X117258Y635827D01*
X117122Y636860D01*
X116723Y637822D01*
X116089Y638648D01*
X115263Y639282D01*
X114301Y639681D01*
X113268Y639817D01*
D02*
G37*
G36*
X205649Y612223D02*
X197737D01*
Y604312D01*
X205649D01*
Y612223D01*
D02*
G37*
G36*
X107224D02*
X99312D01*
Y604312D01*
X107224D01*
Y612223D01*
D02*
G37*
G36*
X211693Y612258D02*
X210660Y612122D01*
X209698Y611723D01*
X208872Y611089D01*
X208238Y610263D01*
X207839Y609300D01*
X207703Y608268D01*
X207839Y607235D01*
X208238Y606273D01*
X208872Y605446D01*
X209698Y604812D01*
X210660Y604414D01*
X211693Y604278D01*
X212726Y604414D01*
X213688Y604812D01*
X214514Y605446D01*
X215148Y606273D01*
X215547Y607235D01*
X215683Y608268D01*
X215547Y609300D01*
X215148Y610263D01*
X214514Y611089D01*
X213688Y611723D01*
X212726Y612122D01*
X211693Y612258D01*
D02*
G37*
G36*
X113268D02*
X112235Y612122D01*
X111273Y611723D01*
X110446Y611089D01*
X109812Y610263D01*
X109414Y609300D01*
X109278Y608268D01*
X109414Y607235D01*
X109812Y606273D01*
X110446Y605446D01*
X111273Y604812D01*
X112235Y604414D01*
X113268Y604278D01*
X114301Y604414D01*
X115263Y604812D01*
X116089Y605446D01*
X116723Y606273D01*
X117122Y607235D01*
X117258Y608268D01*
X117122Y609300D01*
X116723Y610263D01*
X116089Y611089D01*
X115263Y611723D01*
X114301Y612122D01*
X113268Y612258D01*
D02*
G37*
G36*
X237945Y602277D02*
X237272Y602189D01*
X236645Y601929D01*
X236106Y601516D01*
X235693Y600977D01*
X235433Y600350D01*
X235345Y599677D01*
X235433Y599004D01*
X235693Y598377D01*
X236106Y597838D01*
X236314Y597679D01*
Y538439D01*
X236106Y538279D01*
X235693Y537741D01*
X235433Y537114D01*
X235345Y536441D01*
X235433Y535768D01*
X235693Y535141D01*
X236106Y534602D01*
X236645Y534189D01*
X237272Y533929D01*
X237945Y533841D01*
X238618Y533929D01*
X239245Y534189D01*
X239784Y534602D01*
X240197Y535141D01*
X240457Y535768D01*
X240545Y536441D01*
X240457Y537114D01*
X240197Y537741D01*
X239784Y538279D01*
X239576Y538439D01*
Y597679D01*
X239784Y597838D01*
X239943Y598046D01*
X244409D01*
X244434Y597855D01*
X244694Y597228D01*
X245107Y596689D01*
X245646Y596276D01*
X246273Y596016D01*
X246946Y595928D01*
X247619Y596016D01*
X248246Y596276D01*
X248785Y596689D01*
X249198Y597228D01*
X249458Y597855D01*
X249546Y598528D01*
X249458Y599201D01*
X249198Y599828D01*
X248785Y600366D01*
X248246Y600780D01*
X247619Y601039D01*
X246946Y601128D01*
X246273Y601039D01*
X246171Y600997D01*
X245892Y601184D01*
X245268Y601308D01*
X239943D01*
X239784Y601516D01*
X239245Y601929D01*
X238618Y602189D01*
X237945Y602277D01*
D02*
G37*
G36*
X139520D02*
X138847Y602189D01*
X138220Y601929D01*
X137681Y601516D01*
X137268Y600977D01*
X137008Y600350D01*
X136920Y599677D01*
X137008Y599004D01*
X137268Y598377D01*
X137681Y597838D01*
X137888Y597679D01*
Y538439D01*
X137681Y538279D01*
X137268Y537741D01*
X137008Y537114D01*
X136920Y536441D01*
X137008Y535768D01*
X137268Y535141D01*
X137681Y534602D01*
X138220Y534189D01*
X138847Y533929D01*
X139520Y533841D01*
X140193Y533929D01*
X140820Y534189D01*
X141358Y534602D01*
X141772Y535141D01*
X142031Y535768D01*
X142120Y536441D01*
X142031Y537114D01*
X141772Y537741D01*
X141358Y538279D01*
X141151Y538439D01*
Y597679D01*
X141358Y597838D01*
X141517Y598046D01*
X145984D01*
X146009Y597855D01*
X146269Y597228D01*
X146682Y596689D01*
X147221Y596276D01*
X147848Y596016D01*
X148521Y595928D01*
X149194Y596016D01*
X149821Y596276D01*
X150359Y596689D01*
X150773Y597228D01*
X151032Y597855D01*
X151121Y598528D01*
X151032Y599201D01*
X150773Y599828D01*
X150359Y600366D01*
X149821Y600780D01*
X149194Y601039D01*
X148521Y601128D01*
X147848Y601039D01*
X147746Y600997D01*
X147467Y601184D01*
X146842Y601308D01*
X141517D01*
X141358Y601516D01*
X140820Y601929D01*
X140193Y602189D01*
X139520Y602277D01*
D02*
G37*
G36*
X205649Y584664D02*
X197737D01*
Y576753D01*
X205649D01*
Y584664D01*
D02*
G37*
G36*
X107224D02*
X99312D01*
Y576753D01*
X107224D01*
Y584664D01*
D02*
G37*
G36*
X211693Y584699D02*
X210660Y584563D01*
X209698Y584164D01*
X208872Y583530D01*
X208238Y582704D01*
X207839Y581741D01*
X207703Y580709D01*
X207839Y579676D01*
X208238Y578714D01*
X208872Y577887D01*
X209698Y577253D01*
X210660Y576855D01*
X211693Y576719D01*
X212726Y576855D01*
X213688Y577253D01*
X214514Y577887D01*
X215148Y578714D01*
X215547Y579676D01*
X215683Y580709D01*
X215547Y581741D01*
X215148Y582704D01*
X214514Y583530D01*
X213688Y584164D01*
X212726Y584563D01*
X211693Y584699D01*
D02*
G37*
G36*
X113268D02*
X112235Y584563D01*
X111273Y584164D01*
X110446Y583530D01*
X109812Y582704D01*
X109414Y581741D01*
X109278Y580709D01*
X109414Y579676D01*
X109812Y578714D01*
X110446Y577887D01*
X111273Y577253D01*
X112235Y576855D01*
X113268Y576719D01*
X114301Y576855D01*
X115263Y577253D01*
X116089Y577887D01*
X116723Y578714D01*
X117122Y579676D01*
X117258Y580709D01*
X117122Y581741D01*
X116723Y582704D01*
X116089Y583530D01*
X115263Y584164D01*
X114301Y584563D01*
X113268Y584699D01*
D02*
G37*
G36*
X205649Y557105D02*
X197737D01*
Y549194D01*
X205649D01*
Y557105D01*
D02*
G37*
G36*
X107224D02*
X99312D01*
Y549194D01*
X107224D01*
Y557105D01*
D02*
G37*
G36*
X211693Y557140D02*
X210660Y557004D01*
X209698Y556605D01*
X208872Y555971D01*
X208238Y555145D01*
X207839Y554182D01*
X207703Y553150D01*
X207839Y552117D01*
X208238Y551155D01*
X208872Y550328D01*
X209698Y549694D01*
X210660Y549296D01*
X211693Y549160D01*
X212726Y549296D01*
X213688Y549694D01*
X214514Y550328D01*
X215148Y551155D01*
X215547Y552117D01*
X215683Y553150D01*
X215547Y554182D01*
X215148Y555145D01*
X214514Y555971D01*
X213688Y556605D01*
X212726Y557004D01*
X211693Y557140D01*
D02*
G37*
G36*
X113268D02*
X112235Y557004D01*
X111273Y556605D01*
X110446Y555971D01*
X109812Y555145D01*
X109414Y554182D01*
X109278Y553150D01*
X109414Y552117D01*
X109812Y551155D01*
X110446Y550328D01*
X111273Y549694D01*
X112235Y549296D01*
X113268Y549160D01*
X114301Y549296D01*
X115263Y549694D01*
X116089Y550328D01*
X116723Y551155D01*
X117122Y552117D01*
X117258Y553150D01*
X117122Y554182D01*
X116723Y555145D01*
X116089Y555971D01*
X115263Y556605D01*
X114301Y557004D01*
X113268Y557140D01*
D02*
G37*
G36*
X205649Y529546D02*
X197737D01*
Y521635D01*
X205649D01*
Y529546D01*
D02*
G37*
G36*
X107224D02*
X99312D01*
Y521635D01*
X107224D01*
Y529546D01*
D02*
G37*
G36*
X211693Y529581D02*
X210660Y529445D01*
X209698Y529046D01*
X208872Y528412D01*
X208238Y527586D01*
X207839Y526623D01*
X207703Y525591D01*
X207839Y524558D01*
X208238Y523596D01*
X208872Y522769D01*
X209698Y522135D01*
X210660Y521736D01*
X211693Y521601D01*
X212726Y521736D01*
X213688Y522135D01*
X214514Y522769D01*
X215148Y523596D01*
X215547Y524558D01*
X215683Y525591D01*
X215547Y526623D01*
X215148Y527586D01*
X214514Y528412D01*
X213688Y529046D01*
X212726Y529445D01*
X211693Y529581D01*
D02*
G37*
G36*
X113268D02*
X112235Y529445D01*
X111273Y529046D01*
X110446Y528412D01*
X109812Y527586D01*
X109414Y526623D01*
X109278Y525591D01*
X109414Y524558D01*
X109812Y523596D01*
X110446Y522769D01*
X111273Y522135D01*
X112235Y521736D01*
X113268Y521601D01*
X114301Y521736D01*
X115263Y522135D01*
X116089Y522769D01*
X116723Y523596D01*
X117122Y524558D01*
X117258Y525591D01*
X117122Y526623D01*
X116723Y527586D01*
X116089Y528412D01*
X115263Y529046D01*
X114301Y529445D01*
X113268Y529581D01*
D02*
G37*
G36*
X184239Y622616D02*
X183566Y622527D01*
X182939Y622267D01*
X182400Y621854D01*
X181987Y621316D01*
X181727Y620689D01*
X181639Y620016D01*
X181727Y619343D01*
X181987Y618715D01*
X182400Y618177D01*
X182939Y617764D01*
X183566Y617504D01*
X184239Y617415D01*
Y522144D01*
X183739Y521937D01*
X183201Y521524D01*
X182788Y520985D01*
X182528Y520358D01*
X182439Y519685D01*
X182528Y519012D01*
X182788Y518385D01*
X183201Y517846D01*
X183739Y517433D01*
X184366Y517173D01*
X185039Y517085D01*
X185712Y517173D01*
X186339Y517433D01*
X186878Y517846D01*
X187291Y518385D01*
X187551Y519012D01*
X187640Y519685D01*
X187551Y520358D01*
X187496Y520490D01*
X187502Y520516D01*
Y618384D01*
X187377Y619009D01*
X187024Y619538D01*
X186805Y619757D01*
X186839Y620016D01*
X186750Y620689D01*
X186491Y621316D01*
X186077Y621854D01*
X185539Y622267D01*
X184912Y622527D01*
X184239Y622616D01*
D02*
G37*
G36*
X205649Y501987D02*
X197737D01*
Y494075D01*
X205649D01*
Y501987D01*
D02*
G37*
G36*
X107224D02*
X99312D01*
Y494075D01*
X107224D01*
Y501987D01*
D02*
G37*
G36*
X211693Y502022D02*
X210660Y501886D01*
X209698Y501487D01*
X208872Y500853D01*
X208238Y500026D01*
X207839Y499064D01*
X207703Y498031D01*
X207839Y496999D01*
X208238Y496036D01*
X208872Y495210D01*
X209698Y494576D01*
X210660Y494177D01*
X211693Y494041D01*
X212726Y494177D01*
X213688Y494576D01*
X214514Y495210D01*
X215148Y496036D01*
X215547Y496999D01*
X215683Y498031D01*
X215547Y499064D01*
X215148Y500026D01*
X214514Y500853D01*
X213688Y501487D01*
X212726Y501886D01*
X211693Y502022D01*
D02*
G37*
G36*
X113268D02*
X112235Y501886D01*
X111273Y501487D01*
X110446Y500853D01*
X109812Y500026D01*
X109414Y499064D01*
X109278Y498031D01*
X109414Y496999D01*
X109812Y496036D01*
X110446Y495210D01*
X111273Y494576D01*
X112235Y494177D01*
X113268Y494041D01*
X114301Y494177D01*
X115263Y494576D01*
X116089Y495210D01*
X116723Y496036D01*
X117122Y496999D01*
X117258Y498031D01*
X117122Y499064D01*
X116723Y500026D01*
X116089Y500853D01*
X115263Y501487D01*
X114301Y501886D01*
X113268Y502022D01*
D02*
G37*
G36*
X237945Y492041D02*
X237272Y491952D01*
X236645Y491693D01*
X236106Y491279D01*
X235693Y490741D01*
X235433Y490114D01*
X235345Y489441D01*
X235433Y488768D01*
X235693Y488141D01*
X236106Y487602D01*
X236314Y487443D01*
Y428202D01*
X236106Y428043D01*
X235693Y427505D01*
X235433Y426878D01*
X235345Y426205D01*
X235433Y425532D01*
X235693Y424904D01*
X236106Y424366D01*
X236645Y423953D01*
X237272Y423693D01*
X237945Y423604D01*
X238618Y423693D01*
X239245Y423953D01*
X239784Y424366D01*
X240197Y424904D01*
X240457Y425532D01*
X240545Y426205D01*
X240457Y426878D01*
X240197Y427505D01*
X239784Y428043D01*
X239576Y428202D01*
Y487443D01*
X239784Y487602D01*
X239943Y487810D01*
X244409D01*
X244434Y487619D01*
X244694Y486992D01*
X245107Y486453D01*
X245646Y486040D01*
X246273Y485780D01*
X246946Y485691D01*
X247619Y485780D01*
X248246Y486040D01*
X248785Y486453D01*
X249198Y486992D01*
X249458Y487619D01*
X249546Y488292D01*
X249458Y488965D01*
X249198Y489592D01*
X248785Y490130D01*
X248246Y490544D01*
X247619Y490803D01*
X246946Y490892D01*
X246273Y490803D01*
X246171Y490761D01*
X245892Y490948D01*
X245268Y491072D01*
X239943D01*
X239784Y491279D01*
X239245Y491693D01*
X238618Y491952D01*
X237945Y492041D01*
D02*
G37*
G36*
X139520D02*
X138847Y491952D01*
X138220Y491693D01*
X137681Y491279D01*
X137268Y490741D01*
X137008Y490114D01*
X136920Y489441D01*
X137008Y488768D01*
X137268Y488141D01*
X137681Y487602D01*
X137888Y487443D01*
Y428202D01*
X137681Y428043D01*
X137268Y427505D01*
X137008Y426878D01*
X136920Y426205D01*
X137008Y425532D01*
X137268Y424904D01*
X137681Y424366D01*
X138220Y423953D01*
X138847Y423693D01*
X139520Y423604D01*
X140193Y423693D01*
X140820Y423953D01*
X141358Y424366D01*
X141772Y424904D01*
X142031Y425532D01*
X142120Y426205D01*
X142031Y426878D01*
X141772Y427505D01*
X141358Y428043D01*
X141151Y428202D01*
Y487443D01*
X141358Y487602D01*
X141517Y487810D01*
X145984D01*
X146009Y487619D01*
X146269Y486992D01*
X146682Y486453D01*
X147221Y486040D01*
X147848Y485780D01*
X148521Y485691D01*
X149194Y485780D01*
X149821Y486040D01*
X150359Y486453D01*
X150773Y486992D01*
X151032Y487619D01*
X151121Y488292D01*
X151032Y488965D01*
X150773Y489592D01*
X150359Y490130D01*
X149821Y490544D01*
X149194Y490803D01*
X148521Y490892D01*
X147848Y490803D01*
X147746Y490761D01*
X147467Y490948D01*
X146842Y491072D01*
X141517D01*
X141358Y491279D01*
X140820Y491693D01*
X140193Y491952D01*
X139520Y492041D01*
D02*
G37*
G36*
X205649Y474428D02*
X197737D01*
Y466516D01*
X205649D01*
Y474428D01*
D02*
G37*
G36*
X107224D02*
X99312D01*
Y466516D01*
X107224D01*
Y474428D01*
D02*
G37*
G36*
X211693Y474462D02*
X210660Y474327D01*
X209698Y473928D01*
X208872Y473294D01*
X208238Y472467D01*
X207839Y471505D01*
X207703Y470472D01*
X207839Y469440D01*
X208238Y468477D01*
X208872Y467651D01*
X209698Y467017D01*
X210660Y466618D01*
X211693Y466482D01*
X212726Y466618D01*
X213688Y467017D01*
X214514Y467651D01*
X215148Y468477D01*
X215547Y469440D01*
X215683Y470472D01*
X215547Y471505D01*
X215148Y472467D01*
X214514Y473294D01*
X213688Y473928D01*
X212726Y474327D01*
X211693Y474462D01*
D02*
G37*
G36*
X113268D02*
X112235Y474327D01*
X111273Y473928D01*
X110446Y473294D01*
X109812Y472467D01*
X109414Y471505D01*
X109278Y470472D01*
X109414Y469440D01*
X109812Y468477D01*
X110446Y467651D01*
X111273Y467017D01*
X112235Y466618D01*
X113268Y466482D01*
X114301Y466618D01*
X115263Y467017D01*
X116089Y467651D01*
X116723Y468477D01*
X117122Y469440D01*
X117258Y470472D01*
X117122Y471505D01*
X116723Y472467D01*
X116089Y473294D01*
X115263Y473928D01*
X114301Y474327D01*
X113268Y474462D01*
D02*
G37*
G36*
X205649Y446869D02*
X197737D01*
Y438958D01*
X205649D01*
Y446869D01*
D02*
G37*
G36*
X107224D02*
X99312D01*
Y438958D01*
X107224D01*
Y446869D01*
D02*
G37*
G36*
X211693Y446903D02*
X210660Y446768D01*
X209698Y446369D01*
X208872Y445735D01*
X208238Y444908D01*
X207839Y443946D01*
X207703Y442913D01*
X207839Y441881D01*
X208238Y440918D01*
X208872Y440092D01*
X209698Y439458D01*
X210660Y439059D01*
X211693Y438923D01*
X212726Y439059D01*
X213688Y439458D01*
X214514Y440092D01*
X215148Y440918D01*
X215547Y441881D01*
X215683Y442913D01*
X215547Y443946D01*
X215148Y444908D01*
X214514Y445735D01*
X213688Y446369D01*
X212726Y446768D01*
X211693Y446903D01*
D02*
G37*
G36*
X113268D02*
X112235Y446768D01*
X111273Y446369D01*
X110446Y445735D01*
X109812Y444908D01*
X109414Y443946D01*
X109278Y442913D01*
X109414Y441881D01*
X109812Y440918D01*
X110446Y440092D01*
X111273Y439458D01*
X112235Y439059D01*
X113268Y438923D01*
X114301Y439059D01*
X115263Y439458D01*
X116089Y440092D01*
X116723Y440918D01*
X117122Y441881D01*
X117258Y442913D01*
X117122Y443946D01*
X116723Y444908D01*
X116089Y445735D01*
X115263Y446369D01*
X114301Y446768D01*
X113268Y446903D01*
D02*
G37*
G36*
X205649Y419310D02*
X197737D01*
Y411399D01*
X205649D01*
Y419310D01*
D02*
G37*
G36*
X107224D02*
X99312D01*
Y411399D01*
X107224D01*
Y419310D01*
D02*
G37*
G36*
X211693Y419344D02*
X210660Y419208D01*
X209698Y418810D01*
X208872Y418176D01*
X208238Y417349D01*
X207839Y416387D01*
X207703Y415354D01*
X207839Y414322D01*
X208238Y413359D01*
X208872Y412533D01*
X209698Y411899D01*
X210660Y411500D01*
X211693Y411364D01*
X212726Y411500D01*
X213688Y411899D01*
X214514Y412533D01*
X215148Y413359D01*
X215547Y414322D01*
X215683Y415354D01*
X215547Y416387D01*
X215148Y417349D01*
X214514Y418176D01*
X213688Y418810D01*
X212726Y419208D01*
X211693Y419344D01*
D02*
G37*
G36*
X113268D02*
X112235Y419208D01*
X111273Y418810D01*
X110446Y418176D01*
X109812Y417349D01*
X109414Y416387D01*
X109278Y415354D01*
X109414Y414322D01*
X109812Y413359D01*
X110446Y412533D01*
X111273Y411899D01*
X112235Y411500D01*
X113268Y411364D01*
X114301Y411500D01*
X115263Y411899D01*
X116089Y412533D01*
X116723Y413359D01*
X117122Y414322D01*
X117258Y415354D01*
X117122Y416387D01*
X116723Y417349D01*
X116089Y418176D01*
X115263Y418810D01*
X114301Y419208D01*
X113268Y419344D01*
D02*
G37*
G36*
X205649Y391751D02*
X197737D01*
Y383839D01*
X205649D01*
Y391751D01*
D02*
G37*
G36*
X107224D02*
X99312D01*
Y383839D01*
X107224D01*
Y391751D01*
D02*
G37*
G36*
X211693Y391785D02*
X210660Y391649D01*
X209698Y391251D01*
X208872Y390617D01*
X208238Y389790D01*
X207839Y388828D01*
X207703Y387795D01*
X207839Y386762D01*
X208238Y385800D01*
X208872Y384974D01*
X209698Y384340D01*
X210660Y383941D01*
X211693Y383805D01*
X212726Y383941D01*
X213688Y384340D01*
X214514Y384974D01*
X215148Y385800D01*
X215547Y386762D01*
X215683Y387795D01*
X215547Y388828D01*
X215148Y389790D01*
X214514Y390617D01*
X213688Y391251D01*
X212726Y391649D01*
X211693Y391785D01*
D02*
G37*
G36*
X113268D02*
X112235Y391649D01*
X111273Y391251D01*
X110446Y390617D01*
X109812Y389790D01*
X109414Y388828D01*
X109278Y387795D01*
X109414Y386762D01*
X109812Y385800D01*
X110446Y384974D01*
X111273Y384340D01*
X112235Y383941D01*
X113268Y383805D01*
X114301Y383941D01*
X115263Y384340D01*
X116089Y384974D01*
X116723Y385800D01*
X117122Y386762D01*
X117258Y387795D01*
X117122Y388828D01*
X116723Y389790D01*
X116089Y390617D01*
X115263Y391251D01*
X114301Y391649D01*
X113268Y391785D01*
D02*
G37*
G36*
X237945Y381805D02*
X237272Y381716D01*
X236645Y381456D01*
X236106Y381043D01*
X235693Y380505D01*
X235433Y379878D01*
X235345Y379205D01*
X235433Y378532D01*
X235693Y377905D01*
X236106Y377366D01*
X236314Y377207D01*
Y317966D01*
X236106Y317807D01*
X235693Y317268D01*
X235433Y316641D01*
X235345Y315968D01*
X235433Y315295D01*
X235693Y314668D01*
X236106Y314130D01*
X236645Y313717D01*
X237272Y313457D01*
X237945Y313368D01*
X238618Y313457D01*
X239245Y313717D01*
X239784Y314130D01*
X240197Y314668D01*
X240457Y315295D01*
X240545Y315968D01*
X240457Y316641D01*
X240197Y317268D01*
X239784Y317807D01*
X239576Y317966D01*
Y377207D01*
X239784Y377366D01*
X239943Y377573D01*
X244409D01*
X244434Y377382D01*
X244694Y376755D01*
X245107Y376217D01*
X245646Y375804D01*
X246273Y375544D01*
X246946Y375455D01*
X247619Y375544D01*
X248246Y375804D01*
X248785Y376217D01*
X249198Y376755D01*
X249458Y377382D01*
X249546Y378055D01*
X249458Y378728D01*
X249198Y379356D01*
X248785Y379894D01*
X248246Y380307D01*
X247619Y380567D01*
X246946Y380656D01*
X246273Y380567D01*
X246171Y380525D01*
X245892Y380712D01*
X245268Y380836D01*
X239943D01*
X239784Y381043D01*
X239245Y381456D01*
X238618Y381716D01*
X237945Y381805D01*
D02*
G37*
G36*
X139520D02*
X138847Y381716D01*
X138220Y381456D01*
X137681Y381043D01*
X137268Y380505D01*
X137008Y379878D01*
X136920Y379205D01*
X137008Y378532D01*
X137268Y377905D01*
X137681Y377366D01*
X137888Y377207D01*
Y317966D01*
X137681Y317807D01*
X137268Y317268D01*
X137008Y316641D01*
X136920Y315968D01*
X137008Y315295D01*
X137268Y314668D01*
X137681Y314130D01*
X138220Y313717D01*
X138847Y313457D01*
X139520Y313368D01*
X140193Y313457D01*
X140820Y313717D01*
X141358Y314130D01*
X141772Y314668D01*
X142031Y315295D01*
X142120Y315968D01*
X142031Y316641D01*
X141772Y317268D01*
X141358Y317807D01*
X141151Y317966D01*
Y377207D01*
X141358Y377366D01*
X141517Y377573D01*
X145984D01*
X146009Y377382D01*
X146269Y376755D01*
X146682Y376217D01*
X147221Y375804D01*
X147848Y375544D01*
X148521Y375455D01*
X149194Y375544D01*
X149821Y375804D01*
X150359Y376217D01*
X150773Y376755D01*
X151032Y377382D01*
X151121Y378055D01*
X151032Y378728D01*
X150773Y379356D01*
X150359Y379894D01*
X149821Y380307D01*
X149194Y380567D01*
X148521Y380656D01*
X147848Y380567D01*
X147746Y380525D01*
X147467Y380712D01*
X146842Y380836D01*
X141517D01*
X141358Y381043D01*
X140820Y381456D01*
X140193Y381716D01*
X139520Y381805D01*
D02*
G37*
G36*
X205649Y364192D02*
X197737D01*
Y356280D01*
X205649D01*
Y364192D01*
D02*
G37*
G36*
X107224D02*
X99312D01*
Y356280D01*
X107224D01*
Y364192D01*
D02*
G37*
G36*
X211693Y364226D02*
X210660Y364090D01*
X209698Y363692D01*
X208872Y363058D01*
X208238Y362231D01*
X207839Y361269D01*
X207703Y360236D01*
X207839Y359204D01*
X208238Y358241D01*
X208872Y357415D01*
X209698Y356781D01*
X210660Y356382D01*
X211693Y356246D01*
X212726Y356382D01*
X213688Y356781D01*
X214514Y357415D01*
X215148Y358241D01*
X215547Y359204D01*
X215683Y360236D01*
X215547Y361269D01*
X215148Y362231D01*
X214514Y363058D01*
X213688Y363692D01*
X212726Y364090D01*
X211693Y364226D01*
D02*
G37*
G36*
X113268D02*
X112235Y364090D01*
X111273Y363692D01*
X110446Y363058D01*
X109812Y362231D01*
X109414Y361269D01*
X109278Y360236D01*
X109414Y359204D01*
X109812Y358241D01*
X110446Y357415D01*
X111273Y356781D01*
X112235Y356382D01*
X113268Y356246D01*
X114301Y356382D01*
X115263Y356781D01*
X116089Y357415D01*
X116723Y358241D01*
X117122Y359204D01*
X117258Y360236D01*
X117122Y361269D01*
X116723Y362231D01*
X116089Y363058D01*
X115263Y363692D01*
X114301Y364090D01*
X113268Y364226D01*
D02*
G37*
G36*
X205649Y336633D02*
X197737D01*
Y328721D01*
X205649D01*
Y336633D01*
D02*
G37*
G36*
X107224D02*
X99312D01*
Y328721D01*
X107224D01*
Y336633D01*
D02*
G37*
G36*
X211693Y336667D02*
X210660Y336531D01*
X209698Y336133D01*
X208872Y335499D01*
X208238Y334672D01*
X207839Y333710D01*
X207703Y332677D01*
X207839Y331645D01*
X208238Y330682D01*
X208872Y329856D01*
X209698Y329222D01*
X210660Y328823D01*
X211693Y328687D01*
X212726Y328823D01*
X213688Y329222D01*
X214514Y329856D01*
X215148Y330682D01*
X215547Y331645D01*
X215683Y332677D01*
X215547Y333710D01*
X215148Y334672D01*
X214514Y335499D01*
X213688Y336133D01*
X212726Y336531D01*
X211693Y336667D01*
D02*
G37*
G36*
X113268D02*
X112235Y336531D01*
X111273Y336133D01*
X110446Y335499D01*
X109812Y334672D01*
X109414Y333710D01*
X109278Y332677D01*
X109414Y331645D01*
X109812Y330682D01*
X110446Y329856D01*
X111273Y329222D01*
X112235Y328823D01*
X113268Y328687D01*
X114301Y328823D01*
X115263Y329222D01*
X116089Y329856D01*
X116723Y330682D01*
X117122Y331645D01*
X117258Y332677D01*
X117122Y333710D01*
X116723Y334672D01*
X116089Y335499D01*
X115263Y336133D01*
X114301Y336531D01*
X113268Y336667D01*
D02*
G37*
G36*
X205649Y309074D02*
X197737D01*
Y301162D01*
X205649D01*
Y309074D01*
D02*
G37*
G36*
X107224D02*
X99312D01*
Y301162D01*
X107224D01*
Y309074D01*
D02*
G37*
G36*
X211693Y309108D02*
X210660Y308972D01*
X209698Y308574D01*
X208872Y307939D01*
X208238Y307113D01*
X207839Y306151D01*
X207703Y305118D01*
X207839Y304085D01*
X208238Y303123D01*
X208872Y302297D01*
X209698Y301662D01*
X210660Y301264D01*
X211693Y301128D01*
X212726Y301264D01*
X213688Y301662D01*
X214514Y302297D01*
X215148Y303123D01*
X215547Y304085D01*
X215683Y305118D01*
X215547Y306151D01*
X215148Y307113D01*
X214514Y307939D01*
X213688Y308574D01*
X212726Y308972D01*
X211693Y309108D01*
D02*
G37*
G36*
X113268D02*
X112235Y308972D01*
X111273Y308574D01*
X110446Y307939D01*
X109812Y307113D01*
X109414Y306151D01*
X109278Y305118D01*
X109414Y304085D01*
X109812Y303123D01*
X110446Y302297D01*
X111273Y301662D01*
X112235Y301264D01*
X113268Y301128D01*
X114301Y301264D01*
X115263Y301662D01*
X116089Y302297D01*
X116723Y303123D01*
X117122Y304085D01*
X117258Y305118D01*
X117122Y306151D01*
X116723Y307113D01*
X116089Y307939D01*
X115263Y308574D01*
X114301Y308972D01*
X113268Y309108D01*
D02*
G37*
G36*
X185246Y402143D02*
X184573Y402055D01*
X183946Y401795D01*
X183407Y401382D01*
X182994Y400843D01*
X182734Y400216D01*
X182646Y399543D01*
X182734Y398870D01*
X182994Y398243D01*
X183407Y397705D01*
X183615Y397546D01*
Y301369D01*
X183201Y301051D01*
X182788Y300513D01*
X182528Y299886D01*
X182439Y299213D01*
X182528Y298540D01*
X182788Y297913D01*
X183201Y297374D01*
X183739Y296961D01*
X184366Y296701D01*
X185039Y296612D01*
X185712Y296701D01*
X186339Y296961D01*
X186878Y297374D01*
X187291Y297913D01*
X187551Y298540D01*
X187640Y299213D01*
X187551Y299886D01*
X187291Y300513D01*
X186878Y301051D01*
X186877Y301052D01*
Y397546D01*
X187084Y397705D01*
X187498Y398243D01*
X187758Y398870D01*
X187846Y399543D01*
X187758Y400216D01*
X187498Y400843D01*
X187084Y401382D01*
X186546Y401795D01*
X185919Y402055D01*
X185246Y402143D01*
D02*
G37*
G36*
X205649Y281515D02*
X197737D01*
Y273603D01*
X205649D01*
Y281515D01*
D02*
G37*
G36*
X107224D02*
X99312D01*
Y273603D01*
X107224D01*
Y281515D01*
D02*
G37*
G36*
X211693Y281549D02*
X210660Y281413D01*
X209698Y281014D01*
X208872Y280380D01*
X208238Y279554D01*
X207839Y278592D01*
X207703Y277559D01*
X207839Y276526D01*
X208238Y275564D01*
X208872Y274738D01*
X209698Y274103D01*
X210660Y273705D01*
X211693Y273569D01*
X212726Y273705D01*
X213688Y274103D01*
X214514Y274738D01*
X215148Y275564D01*
X215547Y276526D01*
X215683Y277559D01*
X215547Y278592D01*
X215148Y279554D01*
X214514Y280380D01*
X213688Y281014D01*
X212726Y281413D01*
X211693Y281549D01*
D02*
G37*
G36*
X113268D02*
X112235Y281413D01*
X111273Y281014D01*
X110446Y280380D01*
X109812Y279554D01*
X109414Y278592D01*
X109278Y277559D01*
X109414Y276526D01*
X109812Y275564D01*
X110446Y274738D01*
X111273Y274103D01*
X112235Y273705D01*
X113268Y273569D01*
X114301Y273705D01*
X115263Y274103D01*
X116089Y274738D01*
X116723Y275564D01*
X117122Y276526D01*
X117258Y277559D01*
X117122Y278592D01*
X116723Y279554D01*
X116089Y280380D01*
X115263Y281014D01*
X114301Y281413D01*
X113268Y281549D01*
D02*
G37*
G36*
X237945Y271569D02*
X237272Y271480D01*
X236645Y271220D01*
X236106Y270807D01*
X235693Y270269D01*
X235433Y269641D01*
X235345Y268968D01*
X235433Y268295D01*
X235693Y267668D01*
X236106Y267130D01*
X236645Y266717D01*
X237272Y266457D01*
X237945Y266368D01*
X238618Y266457D01*
X239245Y266717D01*
X239784Y267130D01*
X239943Y267337D01*
X244409D01*
X244434Y267146D01*
X244694Y266519D01*
X245107Y265981D01*
X245646Y265567D01*
X246273Y265308D01*
X246946Y265219D01*
X247619Y265308D01*
X248246Y265567D01*
X248785Y265981D01*
X249198Y266519D01*
X249458Y267146D01*
X249546Y267819D01*
X249458Y268492D01*
X249198Y269119D01*
X248785Y269658D01*
X248246Y270071D01*
X247619Y270331D01*
X246946Y270419D01*
X246273Y270331D01*
X246171Y270289D01*
X245892Y270476D01*
X245268Y270600D01*
X239943D01*
X239784Y270807D01*
X239245Y271220D01*
X238618Y271480D01*
X237945Y271569D01*
D02*
G37*
G36*
X139520D02*
X138847Y271480D01*
X138220Y271220D01*
X137681Y270807D01*
X137268Y270269D01*
X137008Y269641D01*
X136920Y268968D01*
X137008Y268295D01*
X137268Y267668D01*
X137681Y267130D01*
X138220Y266717D01*
X138847Y266457D01*
X139520Y266368D01*
X140193Y266457D01*
X140820Y266717D01*
X141358Y267130D01*
X141517Y267337D01*
X145984D01*
X146009Y267146D01*
X146269Y266519D01*
X146682Y265981D01*
X147221Y265567D01*
X147848Y265308D01*
X148521Y265219D01*
X149194Y265308D01*
X149821Y265567D01*
X150359Y265981D01*
X150773Y266519D01*
X151032Y267146D01*
X151121Y267819D01*
X151032Y268492D01*
X150773Y269119D01*
X150359Y269658D01*
X149821Y270071D01*
X149194Y270331D01*
X148521Y270419D01*
X147848Y270331D01*
X147746Y270289D01*
X147467Y270476D01*
X146842Y270600D01*
X141517D01*
X141358Y270807D01*
X140820Y271220D01*
X140193Y271480D01*
X139520Y271569D01*
D02*
G37*
G36*
X205649Y253956D02*
X197737D01*
Y246044D01*
X205649D01*
Y253956D01*
D02*
G37*
G36*
X107224D02*
X99312D01*
Y246044D01*
X107224D01*
Y253956D01*
D02*
G37*
G36*
X211693Y253990D02*
X210660Y253854D01*
X209698Y253455D01*
X208872Y252821D01*
X208238Y251995D01*
X207839Y251033D01*
X207703Y250000D01*
X207839Y248967D01*
X208238Y248005D01*
X208872Y247179D01*
X209698Y246545D01*
X210660Y246146D01*
X211693Y246010D01*
X212726Y246146D01*
X213688Y246545D01*
X214514Y247179D01*
X215148Y248005D01*
X215547Y248967D01*
X215683Y250000D01*
X215547Y251033D01*
X215148Y251995D01*
X214514Y252821D01*
X213688Y253455D01*
X212726Y253854D01*
X211693Y253990D01*
D02*
G37*
G36*
X113268D02*
X112235Y253854D01*
X111273Y253455D01*
X110446Y252821D01*
X109812Y251995D01*
X109414Y251033D01*
X109278Y250000D01*
X109414Y248967D01*
X109812Y248005D01*
X110446Y247179D01*
X111273Y246545D01*
X112235Y246146D01*
X113268Y246010D01*
X114301Y246146D01*
X115263Y246545D01*
X116089Y247179D01*
X116723Y248005D01*
X117122Y248967D01*
X117258Y250000D01*
X117122Y251033D01*
X116723Y251995D01*
X116089Y252821D01*
X115263Y253455D01*
X114301Y253854D01*
X113268Y253990D01*
D02*
G37*
%LPD*%
G36*
X238954Y710882D02*
X239569Y710489D01*
X239696Y710426D01*
X239811Y710376D01*
X239915Y710341D01*
X240008Y710320D01*
X240090Y710313D01*
Y709513D01*
X240008Y709506D01*
X239915Y709485D01*
X239811Y709450D01*
X239696Y709401D01*
X239569Y709338D01*
X239284Y709169D01*
X238954Y708945D01*
X238931Y708928D01*
X238913Y708904D01*
X238520Y708289D01*
X238457Y708163D01*
X238408Y708047D01*
X238373Y707943D01*
X238352Y707850D01*
X238345Y707768D01*
X237545D01*
X237538Y707850D01*
X237517Y707943D01*
X237482Y708047D01*
X237433Y708163D01*
X237369Y708289D01*
X237201Y708575D01*
X236977Y708904D01*
X236843Y709086D01*
X238772D01*
Y711015D01*
X238954Y710882D01*
D02*
G37*
G36*
X246118Y707662D02*
X245937Y707795D01*
X245322Y708189D01*
X245196Y708252D01*
X245080Y708301D01*
X244976Y708336D01*
X244883Y708357D01*
X244801Y708364D01*
Y709164D01*
X244883Y709171D01*
X244976Y709192D01*
X245080Y709227D01*
X245196Y709276D01*
X245322Y709340D01*
X245607Y709508D01*
X245937Y709732D01*
X246118Y709866D01*
Y707662D01*
D02*
G37*
G36*
X238352Y648740D02*
X238373Y648647D01*
X238408Y648543D01*
X238457Y648427D01*
X238520Y648301D01*
X238689Y648016D01*
X238913Y647686D01*
X239047Y647505D01*
X236843D01*
X236977Y647686D01*
X237369Y648301D01*
X237433Y648427D01*
X237482Y648543D01*
X237517Y648647D01*
X237538Y648740D01*
X237545Y648822D01*
X238345D01*
X238352Y648740D01*
D02*
G37*
G36*
X140892Y710161D02*
X141147Y709543D01*
X141209Y709422D01*
X141334Y709220D01*
X141396Y709138D01*
X141458Y709070D01*
X140915Y708481D01*
X140882Y708502D01*
X140825Y708520D01*
X140748Y708534D01*
X140648Y708545D01*
X140382Y708556D01*
X140265Y708554D01*
X140095Y708289D01*
X140032Y708163D01*
X139983Y708047D01*
X139948Y707943D01*
X139927Y707850D01*
X139920Y707768D01*
X139120D01*
X139113Y707850D01*
X139092Y707943D01*
X139057Y708047D01*
X139007Y708163D01*
X138944Y708289D01*
X138776Y708575D01*
X138551Y708904D01*
X138418Y709086D01*
X139963D01*
X140827Y710349D01*
X140892Y710161D01*
D02*
G37*
G36*
X147693Y707662D02*
X147512Y707795D01*
X146897Y708189D01*
X146770Y708252D01*
X146655Y708301D01*
X146551Y708336D01*
X146458Y708357D01*
X146375Y708364D01*
Y709164D01*
X146458Y709171D01*
X146551Y709192D01*
X146655Y709227D01*
X146770Y709276D01*
X146897Y709340D01*
X147182Y709508D01*
X147512Y709732D01*
X147693Y709866D01*
Y707662D01*
D02*
G37*
G36*
X139927Y648740D02*
X139948Y648647D01*
X139983Y648543D01*
X140032Y648427D01*
X140095Y648301D01*
X140264Y648016D01*
X140488Y647686D01*
X140622Y647505D01*
X138418D01*
X138551Y647686D01*
X138944Y648301D01*
X139007Y648427D01*
X139057Y648543D01*
X139092Y648647D01*
X139113Y648740D01*
X139120Y648822D01*
X139920D01*
X139927Y648740D01*
D02*
G37*
G36*
X245584Y599939D02*
X245640Y599921D01*
X245718Y599907D01*
X245818Y599896D01*
X246084Y599885D01*
X246647Y599894D01*
X246879Y599904D01*
X245639Y598093D01*
X245574Y598280D01*
X245319Y598898D01*
X245256Y599019D01*
X245131Y599222D01*
X245070Y599303D01*
X245008Y599371D01*
X245550Y599960D01*
X245584Y599939D01*
D02*
G37*
G36*
X238954Y600645D02*
X239569Y600252D01*
X239696Y600189D01*
X239811Y600140D01*
X239915Y600105D01*
X240008Y600084D01*
X240090Y600077D01*
Y599277D01*
X240008Y599270D01*
X239915Y599249D01*
X239811Y599214D01*
X239696Y599165D01*
X239569Y599102D01*
X239284Y598933D01*
X238954Y598708D01*
X238931Y598691D01*
X238913Y598668D01*
X238520Y598053D01*
X238457Y597927D01*
X238408Y597811D01*
X238373Y597707D01*
X238352Y597614D01*
X238345Y597532D01*
X237545D01*
X237538Y597614D01*
X237517Y597707D01*
X237482Y597811D01*
X237433Y597927D01*
X237369Y598053D01*
X237201Y598338D01*
X236977Y598668D01*
X236843Y598849D01*
X238772D01*
Y600779D01*
X238954Y600645D01*
D02*
G37*
G36*
X238352Y538504D02*
X238373Y538411D01*
X238408Y538307D01*
X238457Y538191D01*
X238520Y538065D01*
X238689Y537779D01*
X238913Y537450D01*
X239047Y537268D01*
X236843D01*
X236977Y537450D01*
X237369Y538065D01*
X237433Y538191D01*
X237482Y538307D01*
X237517Y538411D01*
X237538Y538504D01*
X237545Y538586D01*
X238345D01*
X238352Y538504D01*
D02*
G37*
G36*
X147159Y599939D02*
X147215Y599921D01*
X147293Y599907D01*
X147393Y599896D01*
X147659Y599885D01*
X148222Y599894D01*
X148454Y599904D01*
X147213Y598093D01*
X147149Y598280D01*
X146894Y598898D01*
X146831Y599019D01*
X146706Y599222D01*
X146644Y599303D01*
X146583Y599371D01*
X147125Y599960D01*
X147159Y599939D01*
D02*
G37*
G36*
X140529Y600645D02*
X141144Y600252D01*
X141270Y600189D01*
X141386Y600140D01*
X141490Y600105D01*
X141583Y600084D01*
X141665Y600077D01*
Y599277D01*
X141583Y599270D01*
X141490Y599249D01*
X141386Y599214D01*
X141270Y599165D01*
X141144Y599102D01*
X140858Y598933D01*
X140529Y598708D01*
X140505Y598691D01*
X140488Y598668D01*
X140095Y598053D01*
X140032Y597927D01*
X139983Y597811D01*
X139948Y597707D01*
X139927Y597614D01*
X139920Y597532D01*
X139120D01*
X139113Y597614D01*
X139092Y597707D01*
X139057Y597811D01*
X139007Y597927D01*
X138944Y598053D01*
X138776Y598338D01*
X138551Y598668D01*
X138418Y598849D01*
X140347D01*
Y600779D01*
X140529Y600645D01*
D02*
G37*
G36*
X139927Y538504D02*
X139948Y538411D01*
X139983Y538307D01*
X140032Y538191D01*
X140095Y538065D01*
X140264Y537779D01*
X140488Y537450D01*
X140622Y537268D01*
X138418D01*
X138551Y537450D01*
X138944Y538065D01*
X139007Y538191D01*
X139057Y538307D01*
X139092Y538411D01*
X139113Y538504D01*
X139120Y538586D01*
X139920D01*
X139927Y538504D01*
D02*
G37*
G36*
X185637Y619987D02*
X185794Y619274D01*
X185839Y619140D01*
X185886Y619024D01*
X185934Y618925D01*
X185986Y618845D01*
X186039Y618781D01*
X185473Y618216D01*
X185410Y618269D01*
X185329Y618320D01*
X185231Y618369D01*
X185114Y618415D01*
X184980Y618460D01*
X184659Y618543D01*
X184267Y618617D01*
X184045Y618651D01*
X185603Y620210D01*
X185637Y619987D01*
D02*
G37*
G36*
X186270Y521611D02*
X186271Y521387D01*
X186339Y520217D01*
X186358Y520107D01*
X186378Y520012D01*
X184358Y520883D01*
X184570Y521006D01*
X185070Y521336D01*
X185192Y521433D01*
X185292Y521524D01*
X185370Y521608D01*
X185426Y521685D01*
X185459Y521756D01*
X185470Y521821D01*
X186270Y521611D01*
D02*
G37*
G36*
X245584Y489702D02*
X245640Y489685D01*
X245718Y489670D01*
X245818Y489660D01*
X246084Y489648D01*
X246647Y489658D01*
X246879Y489668D01*
X245639Y487856D01*
X245574Y488044D01*
X245319Y488661D01*
X245256Y488783D01*
X245131Y488985D01*
X245070Y489067D01*
X245008Y489135D01*
X245550Y489724D01*
X245584Y489702D01*
D02*
G37*
G36*
X238954Y490409D02*
X239569Y490016D01*
X239696Y489953D01*
X239811Y489904D01*
X239915Y489869D01*
X240008Y489848D01*
X240090Y489841D01*
Y489041D01*
X240008Y489034D01*
X239915Y489013D01*
X239811Y488978D01*
X239696Y488929D01*
X239569Y488865D01*
X239284Y488697D01*
X238954Y488472D01*
X238931Y488455D01*
X238913Y488432D01*
X238520Y487817D01*
X238457Y487690D01*
X238408Y487575D01*
X238373Y487471D01*
X238352Y487378D01*
X238345Y487295D01*
X237545D01*
X237538Y487378D01*
X237517Y487471D01*
X237482Y487575D01*
X237433Y487690D01*
X237369Y487817D01*
X237201Y488102D01*
X236977Y488432D01*
X236843Y488613D01*
X238772D01*
Y490543D01*
X238954Y490409D01*
D02*
G37*
G36*
X238352Y428268D02*
X238373Y428175D01*
X238408Y428070D01*
X238457Y427955D01*
X238520Y427829D01*
X238689Y427543D01*
X238913Y427213D01*
X239047Y427032D01*
X236843D01*
X236977Y427213D01*
X237369Y427829D01*
X237433Y427955D01*
X237482Y428070D01*
X237517Y428175D01*
X237538Y428268D01*
X237545Y428350D01*
X238345D01*
X238352Y428268D01*
D02*
G37*
G36*
X147159Y489702D02*
X147215Y489685D01*
X147293Y489670D01*
X147393Y489660D01*
X147659Y489648D01*
X148222Y489658D01*
X148454Y489668D01*
X147213Y487856D01*
X147149Y488044D01*
X146894Y488661D01*
X146831Y488783D01*
X146706Y488985D01*
X146644Y489067D01*
X146583Y489135D01*
X147125Y489724D01*
X147159Y489702D01*
D02*
G37*
G36*
X140529Y490409D02*
X141144Y490016D01*
X141270Y489953D01*
X141386Y489904D01*
X141490Y489869D01*
X141583Y489848D01*
X141665Y489841D01*
Y489041D01*
X141583Y489034D01*
X141490Y489013D01*
X141386Y488978D01*
X141270Y488929D01*
X141144Y488865D01*
X140858Y488697D01*
X140529Y488472D01*
X140505Y488455D01*
X140488Y488432D01*
X140095Y487817D01*
X140032Y487690D01*
X139983Y487575D01*
X139948Y487471D01*
X139927Y487378D01*
X139920Y487295D01*
X139120D01*
X139113Y487378D01*
X139092Y487471D01*
X139057Y487575D01*
X139007Y487690D01*
X138944Y487817D01*
X138776Y488102D01*
X138551Y488432D01*
X138418Y488613D01*
X140347D01*
Y490543D01*
X140529Y490409D01*
D02*
G37*
G36*
X139927Y428268D02*
X139948Y428175D01*
X139983Y428070D01*
X140032Y427955D01*
X140095Y427829D01*
X140264Y427543D01*
X140488Y427213D01*
X140622Y427032D01*
X138418D01*
X138551Y427213D01*
X138944Y427829D01*
X139007Y427955D01*
X139057Y428070D01*
X139092Y428175D01*
X139113Y428268D01*
X139120Y428350D01*
X139920D01*
X139927Y428268D01*
D02*
G37*
G36*
X245584Y379466D02*
X245640Y379449D01*
X245718Y379434D01*
X245818Y379423D01*
X246084Y379412D01*
X246647Y379422D01*
X246879Y379432D01*
X245639Y377620D01*
X245574Y377808D01*
X245319Y378425D01*
X245256Y378547D01*
X245131Y378749D01*
X245070Y378830D01*
X245008Y378899D01*
X245550Y379487D01*
X245584Y379466D01*
D02*
G37*
G36*
X238954Y380173D02*
X239569Y379780D01*
X239696Y379717D01*
X239811Y379668D01*
X239915Y379633D01*
X240008Y379612D01*
X240090Y379605D01*
Y378805D01*
X240008Y378798D01*
X239915Y378777D01*
X239811Y378741D01*
X239696Y378692D01*
X239569Y378629D01*
X239284Y378461D01*
X238954Y378236D01*
X238931Y378219D01*
X238913Y378196D01*
X238520Y377580D01*
X238457Y377454D01*
X238408Y377339D01*
X238373Y377235D01*
X238352Y377141D01*
X238345Y377059D01*
X237545D01*
X237538Y377141D01*
X237517Y377235D01*
X237482Y377339D01*
X237433Y377454D01*
X237369Y377580D01*
X237201Y377866D01*
X236977Y378196D01*
X236843Y378377D01*
X238772D01*
Y380307D01*
X238954Y380173D01*
D02*
G37*
G36*
X238352Y318032D02*
X238373Y317938D01*
X238408Y317834D01*
X238457Y317719D01*
X238520Y317593D01*
X238689Y317307D01*
X238913Y316977D01*
X239047Y316796D01*
X236843D01*
X236977Y316977D01*
X237369Y317593D01*
X237433Y317719D01*
X237482Y317834D01*
X237517Y317938D01*
X237538Y318032D01*
X237545Y318114D01*
X238345D01*
X238352Y318032D01*
D02*
G37*
G36*
X147159Y379466D02*
X147215Y379449D01*
X147293Y379434D01*
X147393Y379423D01*
X147659Y379412D01*
X148222Y379422D01*
X148454Y379432D01*
X147213Y377620D01*
X147149Y377808D01*
X146894Y378425D01*
X146831Y378547D01*
X146706Y378749D01*
X146644Y378830D01*
X146583Y378899D01*
X147125Y379487D01*
X147159Y379466D01*
D02*
G37*
G36*
X140529Y380173D02*
X141144Y379780D01*
X141270Y379717D01*
X141386Y379668D01*
X141490Y379633D01*
X141583Y379612D01*
X141665Y379605D01*
Y378805D01*
X141583Y378798D01*
X141490Y378777D01*
X141386Y378741D01*
X141270Y378692D01*
X141144Y378629D01*
X140858Y378461D01*
X140529Y378236D01*
X140505Y378219D01*
X140488Y378196D01*
X140095Y377580D01*
X140032Y377454D01*
X139983Y377339D01*
X139948Y377235D01*
X139927Y377141D01*
X139920Y377059D01*
X139120D01*
X139113Y377141D01*
X139092Y377235D01*
X139057Y377339D01*
X139007Y377454D01*
X138944Y377580D01*
X138776Y377866D01*
X138551Y378196D01*
X138418Y378377D01*
X140347D01*
Y380307D01*
X140529Y380173D01*
D02*
G37*
G36*
X139927Y318032D02*
X139948Y317938D01*
X139983Y317834D01*
X140032Y317719D01*
X140095Y317593D01*
X140264Y317307D01*
X140488Y316977D01*
X140622Y316796D01*
X138418D01*
X138551Y316977D01*
X138944Y317593D01*
X139007Y317719D01*
X139057Y317834D01*
X139092Y317938D01*
X139113Y318032D01*
X139120Y318114D01*
X139920D01*
X139927Y318032D01*
D02*
G37*
G36*
X186214Y398534D02*
X185821Y397919D01*
X185758Y397793D01*
X185709Y397677D01*
X185674Y397573D01*
X185653Y397480D01*
X185646Y397398D01*
X184846D01*
X184839Y397480D01*
X184818Y397573D01*
X184783Y397677D01*
X184734Y397793D01*
X184670Y397919D01*
X184502Y398205D01*
X184277Y398534D01*
X184144Y398716D01*
X186348D01*
X186214Y398534D01*
D02*
G37*
G36*
X185646Y301277D02*
X185652Y301188D01*
X185669Y301089D01*
X185697Y300980D01*
X185737Y300861D01*
X185788Y300732D01*
X185924Y300443D01*
X186106Y300113D01*
X186214Y299933D01*
X184020Y300140D01*
X184177Y300316D01*
X184640Y300910D01*
X184714Y301030D01*
X184772Y301140D01*
X184813Y301239D01*
X184838Y301327D01*
X184846Y301404D01*
X185646Y301277D01*
D02*
G37*
G36*
X238954Y269937D02*
X239569Y269544D01*
X239696Y269481D01*
X239811Y269432D01*
X239915Y269396D01*
X240008Y269375D01*
X240090Y269368D01*
Y268568D01*
X240008Y268561D01*
X239915Y268540D01*
X239811Y268505D01*
X239696Y268456D01*
X239569Y268393D01*
X239284Y268225D01*
X238954Y268000D01*
X238772Y267867D01*
Y270070D01*
X238954Y269937D01*
D02*
G37*
G36*
X245584Y269230D02*
X245640Y269212D01*
X245718Y269198D01*
X245818Y269187D01*
X246084Y269176D01*
X246647Y269185D01*
X246879Y269196D01*
X245639Y267384D01*
X245574Y267571D01*
X245319Y268189D01*
X245256Y268310D01*
X245131Y268513D01*
X245070Y268594D01*
X245008Y268662D01*
X245550Y269251D01*
X245584Y269230D01*
D02*
G37*
G36*
X140529Y269937D02*
X141144Y269544D01*
X141270Y269481D01*
X141386Y269432D01*
X141490Y269396D01*
X141583Y269375D01*
X141665Y269368D01*
Y268568D01*
X141583Y268561D01*
X141490Y268540D01*
X141386Y268505D01*
X141270Y268456D01*
X141144Y268393D01*
X140858Y268225D01*
X140529Y268000D01*
X140347Y267867D01*
Y270070D01*
X140529Y269937D01*
D02*
G37*
G36*
X147159Y269230D02*
X147215Y269212D01*
X147293Y269198D01*
X147393Y269187D01*
X147659Y269176D01*
X148222Y269185D01*
X148454Y269196D01*
X147213Y267384D01*
X147149Y267571D01*
X146894Y268189D01*
X146831Y268310D01*
X146706Y268513D01*
X146644Y268594D01*
X146583Y268662D01*
X147125Y269251D01*
X147159Y269230D01*
D02*
G37*
%LPC*%
G36*
X193000Y177600D02*
X192327Y177512D01*
X191700Y177252D01*
X191161Y176839D01*
X190748Y176300D01*
X190488Y175673D01*
X190400Y175000D01*
X190488Y174327D01*
X190748Y173700D01*
X191161Y173161D01*
X191700Y172748D01*
X192327Y172488D01*
X193000Y172400D01*
X193673Y172488D01*
X194300Y172748D01*
X194839Y173161D01*
X194919Y173266D01*
X211399D01*
X211637Y172957D01*
X212175Y172543D01*
X212803Y172284D01*
X213475Y172195D01*
X214148Y172284D01*
X214776Y172543D01*
X215314Y172957D01*
X215727Y173495D01*
X215987Y174122D01*
X216076Y174795D01*
X215987Y175468D01*
X215727Y176095D01*
X215314Y176634D01*
X214776Y177047D01*
X214148Y177307D01*
X213475Y177395D01*
X212803Y177307D01*
X212175Y177047D01*
X211637Y176634D01*
X211556Y176529D01*
X195076D01*
X194839Y176839D01*
X194300Y177252D01*
X193673Y177512D01*
X193000Y177600D01*
D02*
G37*
G36*
X260669Y167703D02*
X259996Y167614D01*
X259369Y167354D01*
X258831Y166941D01*
X258418Y166402D01*
X258158Y165775D01*
X258069Y165102D01*
X258158Y164429D01*
X258418Y163802D01*
X258831Y163264D01*
X259369Y162851D01*
X259996Y162591D01*
X260669Y162502D01*
X261342Y162591D01*
X261969Y162851D01*
X262508Y163264D01*
X262921Y163802D01*
X263181Y164429D01*
X263270Y165102D01*
X263181Y165775D01*
X262921Y166402D01*
X262508Y166941D01*
X261969Y167354D01*
X261342Y167614D01*
X260669Y167703D01*
D02*
G37*
G36*
X226000Y183788D02*
X225327Y183700D01*
X224700Y183440D01*
X224161Y183027D01*
X223748Y182488D01*
X223488Y181861D01*
X223400Y181188D01*
X223488Y180515D01*
X223748Y179888D01*
X223757Y179876D01*
Y174936D01*
X213433Y164612D01*
X209000D01*
X208820Y164576D01*
X208327Y164512D01*
X208173Y164448D01*
X208142Y164442D01*
X208115Y164424D01*
X207700Y164252D01*
X207161Y163839D01*
X206748Y163300D01*
X206488Y162673D01*
X206400Y162000D01*
X206488Y161327D01*
X206748Y160700D01*
X207161Y160161D01*
X207700Y159748D01*
X208327Y159488D01*
X209000Y159400D01*
X209673Y159488D01*
X210300Y159748D01*
X210793Y160126D01*
X214362D01*
X215221Y160297D01*
X215948Y160783D01*
X227586Y172421D01*
X228072Y173149D01*
X228243Y174007D01*
Y179876D01*
X228252Y179888D01*
X228512Y180515D01*
X228600Y181188D01*
X228512Y181861D01*
X228252Y182488D01*
X227839Y183027D01*
X227300Y183440D01*
X226673Y183700D01*
X226000Y183788D01*
D02*
G37*
G36*
X123542Y162369D02*
X109135D01*
Y148749D01*
X123542D01*
Y162369D01*
D02*
G37*
G36*
X81810D02*
X67402D01*
Y148749D01*
X81810D01*
Y162369D01*
D02*
G37*
G36*
X163669Y152703D02*
X162996Y152614D01*
X162369Y152354D01*
X161831Y151941D01*
X161418Y151402D01*
X161158Y150775D01*
X161069Y150102D01*
X161158Y149429D01*
X161418Y148802D01*
X161831Y148264D01*
X162369Y147851D01*
X162996Y147591D01*
X163669Y147502D01*
X164342Y147591D01*
X164970Y147851D01*
X165508Y148264D01*
X165921Y148802D01*
X166181Y149429D01*
X166270Y150102D01*
X166181Y150775D01*
X165921Y151402D01*
X165508Y151941D01*
X164970Y152354D01*
X164342Y152614D01*
X163669Y152703D01*
D02*
G37*
G36*
X303150Y153795D02*
X302065Y153652D01*
X301055Y153234D01*
X300188Y152568D01*
X299522Y151700D01*
X299104Y150690D01*
X298961Y149606D01*
X299104Y148522D01*
X299522Y147512D01*
X300188Y146644D01*
X301055Y145979D01*
X302065Y145560D01*
X303150Y145418D01*
X304234Y145560D01*
X305244Y145979D01*
X306111Y146644D01*
X306777Y147512D01*
X307195Y148522D01*
X307338Y149606D01*
X307195Y150690D01*
X306777Y151700D01*
X306111Y152568D01*
X305244Y153234D01*
X304234Y153652D01*
X303150Y153795D01*
D02*
G37*
G36*
X63551Y137045D02*
X62878Y136956D01*
X62251Y136697D01*
X61712Y136283D01*
X61299Y135745D01*
X61039Y135118D01*
X60951Y134445D01*
X61039Y133772D01*
X61299Y133145D01*
X61712Y132606D01*
X62251Y132193D01*
X62878Y131933D01*
X63551Y131845D01*
X64224Y131933D01*
X64851Y132193D01*
X65390Y132606D01*
X65803Y133145D01*
X66063Y133772D01*
X66151Y134445D01*
X66063Y135118D01*
X65803Y135745D01*
X65390Y136283D01*
X64851Y136697D01*
X64224Y136956D01*
X63551Y137045D01*
D02*
G37*
G36*
X303150Y135102D02*
X301809Y134926D01*
X300559Y134408D01*
X299486Y133585D01*
X298662Y132512D01*
X298145Y131262D01*
X297968Y129921D01*
X298145Y128580D01*
X298662Y127331D01*
X299486Y126257D01*
X300559Y125434D01*
X301809Y124916D01*
X303150Y124740D01*
X304491Y124916D01*
X305740Y125434D01*
X306813Y126257D01*
X307637Y127331D01*
X308154Y128580D01*
X308331Y129921D01*
X308154Y131262D01*
X307637Y132512D01*
X306813Y133585D01*
X305740Y134408D01*
X304491Y134926D01*
X303150Y135102D01*
D02*
G37*
G36*
X95472Y125407D02*
X94106Y125227D01*
X92832Y124699D01*
X91738Y123860D01*
X91278Y123260D01*
X91154Y123203D01*
X89949D01*
X89825Y123260D01*
X89364Y123860D01*
X88270Y124699D01*
X86997Y125227D01*
X85630Y125407D01*
X84263Y125227D01*
X82990Y124699D01*
X81896Y123860D01*
X81057Y122766D01*
X80529Y121493D01*
X80349Y120126D01*
X80529Y118759D01*
X81057Y117486D01*
X81896Y116392D01*
X82990Y115553D01*
X84263Y115025D01*
X85630Y114846D01*
X86997Y115025D01*
X88270Y115553D01*
X89364Y116392D01*
X89825Y116992D01*
X89949Y117050D01*
X91154D01*
X91278Y116992D01*
X91738Y116392D01*
X92832Y115553D01*
X94106Y115025D01*
X95472Y114846D01*
X96839Y115025D01*
X98113Y115553D01*
X98880Y116141D01*
X99940Y115740D01*
X100080Y115616D01*
Y114891D01*
X110550D01*
Y125362D01*
X100080D01*
Y124636D01*
X99940Y124512D01*
X98880Y124111D01*
X98113Y124699D01*
X96839Y125227D01*
X95472Y125407D01*
D02*
G37*
G36*
X224669Y158703D02*
X223996Y158614D01*
X223369Y158354D01*
X223358Y158345D01*
X220669D01*
X219811Y158175D01*
X219083Y157688D01*
X213011Y151616D01*
X212996Y151614D01*
X212369Y151354D01*
X211831Y150941D01*
X211418Y150402D01*
X211158Y149775D01*
X211156Y149761D01*
X202888Y141493D01*
X156123D01*
X156112Y141502D01*
X155485Y141762D01*
X154812Y141850D01*
X154139Y141762D01*
X153512Y141502D01*
X152973Y141088D01*
X152560Y140550D01*
X152300Y139923D01*
X152211Y139250D01*
X152300Y138577D01*
X152560Y137950D01*
X152973Y137411D01*
X153512Y136998D01*
X154139Y136738D01*
X154812Y136650D01*
X155485Y136738D01*
X156112Y136998D01*
X156123Y137007D01*
X203817D01*
X204675Y137178D01*
X205403Y137664D01*
X214328Y146589D01*
X214342Y146591D01*
X214969Y146851D01*
X215508Y147264D01*
X215921Y147802D01*
X216181Y148429D01*
X216183Y148444D01*
X221599Y153859D01*
X223358D01*
X223369Y153851D01*
X223996Y153591D01*
X224011Y153589D01*
X235769Y141831D01*
Y121390D01*
X235760Y121379D01*
X235500Y120751D01*
X235412Y120078D01*
X235500Y119405D01*
X235760Y118778D01*
X236173Y118240D01*
X236712Y117827D01*
X237339Y117567D01*
X238012Y117478D01*
X238685Y117567D01*
X239312Y117827D01*
X239851Y118240D01*
X240264Y118778D01*
X240524Y119405D01*
X240612Y120078D01*
X240524Y120751D01*
X240264Y121379D01*
X240255Y121390D01*
Y142760D01*
X240084Y143618D01*
X239598Y144346D01*
X227183Y156761D01*
X227181Y156775D01*
X226921Y157403D01*
X226508Y157941D01*
X225970Y158354D01*
X225342Y158614D01*
X224669Y158703D01*
D02*
G37*
G36*
X193000Y114608D02*
X192327Y114520D01*
X191700Y114260D01*
X191161Y113847D01*
X190748Y113308D01*
X190488Y112681D01*
X190400Y112008D01*
X190488Y111335D01*
X190748Y110708D01*
X191161Y110169D01*
X191700Y109756D01*
X192327Y109496D01*
X193000Y109408D01*
X193673Y109496D01*
X194300Y109756D01*
X194839Y110169D01*
X194919Y110274D01*
X211399D01*
X211637Y109964D01*
X212175Y109551D01*
X212803Y109291D01*
X213475Y109203D01*
X214148Y109291D01*
X214776Y109551D01*
X215314Y109964D01*
X215727Y110503D01*
X215987Y111130D01*
X216076Y111803D01*
X215987Y112476D01*
X215727Y113103D01*
X215314Y113642D01*
X214776Y114055D01*
X214148Y114315D01*
X213475Y114403D01*
X212803Y114315D01*
X212175Y114055D01*
X211637Y113642D01*
X211556Y113537D01*
X195076D01*
X194839Y113847D01*
X194300Y114260D01*
X193673Y114520D01*
X193000Y114608D01*
D02*
G37*
G36*
X303150Y114425D02*
X302065Y114282D01*
X301055Y113864D01*
X300188Y113198D01*
X299522Y112330D01*
X299104Y111320D01*
X298961Y110236D01*
X299104Y109152D01*
X299522Y108142D01*
X300188Y107274D01*
X301055Y106609D01*
X302065Y106190D01*
X303150Y106048D01*
X304234Y106190D01*
X305244Y106609D01*
X306111Y107274D01*
X306777Y108142D01*
X307195Y109152D01*
X307338Y110236D01*
X307195Y111320D01*
X306777Y112330D01*
X306111Y113198D01*
X305244Y113864D01*
X304234Y114282D01*
X303150Y114425D01*
D02*
G37*
G36*
X283465Y125260D02*
X282124Y125083D01*
X280874Y124566D01*
X279801Y123742D01*
X278977Y122669D01*
X278460Y121420D01*
X278283Y120079D01*
X278460Y118738D01*
X278977Y117488D01*
X279801Y116415D01*
X280509Y115871D01*
X280604Y115574D01*
Y114741D01*
X280509Y114444D01*
X279801Y113900D01*
X278977Y112827D01*
X278460Y111577D01*
X278283Y110236D01*
X278460Y108895D01*
X278977Y107645D01*
X279801Y106572D01*
X280874Y105749D01*
X282124Y105231D01*
X283465Y105055D01*
X284806Y105231D01*
X286055Y105749D01*
X287128Y106572D01*
X287952Y107645D01*
X288469Y108895D01*
X288646Y110236D01*
X288469Y111577D01*
X287952Y112827D01*
X287128Y113900D01*
X286420Y114444D01*
X286325Y114741D01*
Y115574D01*
X286420Y115871D01*
X287128Y116415D01*
X287952Y117488D01*
X288469Y118738D01*
X288646Y120079D01*
X288469Y121420D01*
X287952Y122669D01*
X287128Y123742D01*
X286055Y124566D01*
X284806Y125083D01*
X283465Y125260D01*
D02*
G37*
G36*
X226000Y120427D02*
X225327Y120338D01*
X224700Y120078D01*
X224161Y119665D01*
X223748Y119127D01*
X223488Y118500D01*
X223400Y117827D01*
X223488Y117154D01*
X223748Y116526D01*
X223757Y116515D01*
Y111575D01*
X213433Y101251D01*
X210312D01*
X210300Y101260D01*
X209673Y101520D01*
X209000Y101608D01*
X208327Y101520D01*
X207700Y101260D01*
X207161Y100847D01*
X206748Y100308D01*
X206488Y99681D01*
X206400Y99008D01*
X206488Y98335D01*
X206748Y97708D01*
X207161Y97169D01*
X207700Y96756D01*
X208327Y96496D01*
X209000Y96408D01*
X209673Y96496D01*
X210300Y96756D01*
X210312Y96765D01*
X214362D01*
X215221Y96935D01*
X215948Y97422D01*
X227586Y109059D01*
X228072Y109787D01*
X228243Y110645D01*
Y116515D01*
X228252Y116526D01*
X228512Y117154D01*
X228600Y117827D01*
X228512Y118500D01*
X228252Y119127D01*
X227839Y119665D01*
X227300Y120078D01*
X226673Y120338D01*
X226000Y120427D01*
D02*
G37*
G36*
X260669Y104710D02*
X259996Y104622D01*
X259369Y104362D01*
X258831Y103949D01*
X258418Y103410D01*
X258158Y102783D01*
X258069Y102110D01*
X258158Y101437D01*
X258418Y100810D01*
X258831Y100272D01*
X259369Y99858D01*
X259996Y99599D01*
X260669Y99510D01*
X261342Y99599D01*
X261969Y99858D01*
X262508Y100272D01*
X262921Y100810D01*
X263181Y101437D01*
X263270Y102110D01*
X263181Y102783D01*
X262921Y103410D01*
X262508Y103949D01*
X261969Y104362D01*
X261342Y104622D01*
X260669Y104710D01*
D02*
G37*
G36*
X123542Y99377D02*
X109135D01*
Y85757D01*
X123542D01*
Y99377D01*
D02*
G37*
G36*
X81810D02*
X67402D01*
Y85757D01*
X81810D01*
Y99377D01*
D02*
G37*
G36*
X163669Y89710D02*
X162996Y89622D01*
X162369Y89362D01*
X161831Y88949D01*
X161418Y88410D01*
X161158Y87783D01*
X161069Y87110D01*
X161158Y86437D01*
X161418Y85810D01*
X161831Y85272D01*
X162369Y84858D01*
X162996Y84599D01*
X163669Y84510D01*
X164342Y84599D01*
X164970Y84858D01*
X165508Y85272D01*
X165921Y85810D01*
X166181Y86437D01*
X166270Y87110D01*
X166181Y87783D01*
X165921Y88410D01*
X165508Y88949D01*
X164970Y89362D01*
X164342Y89622D01*
X163669Y89710D01*
D02*
G37*
G36*
X224669Y95710D02*
X223996Y95622D01*
X223369Y95362D01*
X222831Y94949D01*
X222417Y94410D01*
X222158Y93783D01*
X222156Y93769D01*
X220645Y92258D01*
X217574D01*
X216715Y92087D01*
X215988Y91601D01*
X213011Y88624D01*
X212996Y88622D01*
X212369Y88362D01*
X211831Y87949D01*
X211418Y87410D01*
X211158Y86783D01*
X211156Y86769D01*
X201630Y77243D01*
X157311D01*
X157300Y77252D01*
X156673Y77512D01*
X156000Y77600D01*
X155327Y77512D01*
X154700Y77252D01*
X154161Y76839D01*
X153748Y76300D01*
X153488Y75673D01*
X153400Y75000D01*
X153488Y74327D01*
X153748Y73700D01*
X153757Y73689D01*
Y51102D01*
X145052Y42398D01*
X144700Y42252D01*
X144161Y41839D01*
X143748Y41300D01*
X143488Y40673D01*
X143400Y40000D01*
X143488Y39327D01*
X143748Y38700D01*
X144161Y38161D01*
X144700Y37748D01*
X145327Y37488D01*
X146000Y37400D01*
X146673Y37488D01*
X147300Y37748D01*
X147839Y38161D01*
X148252Y38700D01*
X148512Y39327D01*
X148540Y39541D01*
X157586Y48587D01*
X158072Y49315D01*
X158243Y50173D01*
Y72757D01*
X202559D01*
X203417Y72928D01*
X204145Y73414D01*
X214328Y83597D01*
X214342Y83599D01*
X214969Y83858D01*
X215508Y84272D01*
X215921Y84810D01*
X216181Y85437D01*
X216183Y85452D01*
X218503Y87771D01*
X221574D01*
X222432Y87942D01*
X223160Y88428D01*
X225328Y90597D01*
X225342Y90599D01*
X225970Y90858D01*
X226508Y91272D01*
X226921Y91810D01*
X227181Y92437D01*
X227270Y93110D01*
X227181Y93783D01*
X226921Y94410D01*
X226508Y94949D01*
X225970Y95362D01*
X225342Y95622D01*
X224669Y95710D01*
D02*
G37*
G36*
X283465Y154788D02*
X282124Y154611D01*
X280874Y154093D01*
X279801Y153270D01*
X278977Y152197D01*
X278460Y150947D01*
X278283Y149606D01*
X278460Y148265D01*
X278977Y147016D01*
X279801Y145942D01*
X280509Y145399D01*
X280604Y145101D01*
Y144269D01*
X280509Y143971D01*
X279801Y143428D01*
X278977Y142355D01*
X278460Y141105D01*
X278283Y139764D01*
X278460Y138423D01*
X278977Y137173D01*
X279801Y136100D01*
X280874Y135277D01*
X282124Y134759D01*
X283465Y134582D01*
X284806Y134759D01*
X286055Y135277D01*
X287128Y136100D01*
X287952Y137173D01*
X288469Y138423D01*
X288646Y139764D01*
X288469Y141105D01*
X287952Y142355D01*
X287128Y143428D01*
X286420Y143971D01*
X286325Y144269D01*
Y145101D01*
X286420Y145399D01*
X287128Y145942D01*
X287908Y146958D01*
X289029Y147771D01*
X289186Y147873D01*
X290282D01*
X292098Y146057D01*
Y104233D01*
X262109Y74243D01*
X262000Y74258D01*
X261327Y74169D01*
X260700Y73909D01*
X260161Y73496D01*
X259748Y72958D01*
X259488Y72331D01*
X259400Y71658D01*
X259488Y70985D01*
X259748Y70358D01*
X260161Y69819D01*
X260700Y69406D01*
X261327Y69146D01*
X262000Y69057D01*
X262673Y69146D01*
X263300Y69406D01*
X263839Y69819D01*
X264252Y70358D01*
X264512Y70985D01*
X264600Y71658D01*
X264580Y71812D01*
X277379Y84611D01*
X278354Y83889D01*
X278323Y83830D01*
X277899Y82435D01*
X277756Y80984D01*
X277899Y79534D01*
X278323Y78139D01*
X279010Y76853D01*
X279935Y75726D01*
X281061Y74801D01*
X282347Y74114D01*
X283742Y73691D01*
X285193Y73548D01*
X286644Y73691D01*
X288039Y74114D01*
X289324Y74801D01*
X290452Y75726D01*
X291376Y76853D01*
X292063Y78139D01*
X292487Y79534D01*
X292630Y80984D01*
X292487Y82435D01*
X292063Y83830D01*
X291376Y85116D01*
X290452Y86243D01*
X289324Y87168D01*
X288039Y87855D01*
X286644Y88278D01*
X285193Y88421D01*
X283742Y88278D01*
X282347Y87855D01*
X282289Y87824D01*
X281566Y88798D01*
X295057Y102289D01*
X295433Y102851D01*
X295565Y103515D01*
Y146775D01*
X295433Y147438D01*
X295057Y148001D01*
X292226Y150832D01*
X291663Y151208D01*
X291000Y151339D01*
X289367D01*
X287787Y152411D01*
X287128Y153270D01*
X286055Y154093D01*
X284806Y154611D01*
X283465Y154788D01*
D02*
G37*
G36*
X63551Y74053D02*
X62878Y73964D01*
X62251Y73704D01*
X61712Y73291D01*
X61299Y72753D01*
X61039Y72126D01*
X60951Y71453D01*
X61039Y70780D01*
X61299Y70153D01*
X61712Y69614D01*
X62251Y69201D01*
X62878Y68941D01*
X63551Y68853D01*
X64224Y68941D01*
X64851Y69201D01*
X65390Y69614D01*
X65803Y70153D01*
X66063Y70780D01*
X66151Y71453D01*
X66063Y72126D01*
X65803Y72753D01*
X65390Y73291D01*
X64851Y73704D01*
X64224Y73964D01*
X63551Y74053D01*
D02*
G37*
G36*
X61956Y57798D02*
X54044D01*
Y49887D01*
X61956D01*
Y57798D01*
D02*
G37*
G36*
X274524Y73285D02*
X273388Y73136D01*
X272330Y72697D01*
X271421Y72000D01*
X270724Y71091D01*
X270286Y70033D01*
X270136Y68898D01*
X270286Y67762D01*
X270724Y66704D01*
X271421Y65796D01*
X272330Y65098D01*
X273388Y64660D01*
X273869Y64597D01*
X273984Y64582D01*
Y63371D01*
X273869Y63356D01*
X273388Y63293D01*
X272330Y62855D01*
X271421Y62157D01*
X270724Y61249D01*
X270286Y60191D01*
X270136Y59055D01*
X270286Y57920D01*
X270724Y56862D01*
X271421Y55953D01*
X271524Y55875D01*
Y54362D01*
X271421Y54283D01*
X270724Y53375D01*
X270286Y52317D01*
X270136Y51181D01*
X270286Y50046D01*
X270724Y48988D01*
X271421Y48079D01*
X272330Y47382D01*
X273388Y46944D01*
X273809Y46888D01*
X273730Y45688D01*
X270174D01*
Y36989D01*
X278873D01*
Y45688D01*
X275317D01*
X275239Y46888D01*
X275659Y46944D01*
X276717Y47382D01*
X277626Y48079D01*
X278323Y48988D01*
X278761Y50046D01*
X278911Y51181D01*
X278761Y52317D01*
X278323Y53375D01*
X277626Y54283D01*
X277523Y54362D01*
Y55875D01*
X277626Y55953D01*
X278323Y56862D01*
X278761Y57920D01*
X278911Y59055D01*
X278761Y60191D01*
X278323Y61249D01*
X277626Y62157D01*
X276717Y62855D01*
X275659Y63293D01*
X275178Y63356D01*
X275063Y63371D01*
Y64582D01*
X275178Y64597D01*
X275659Y64660D01*
X276717Y65098D01*
X277626Y65796D01*
X278323Y66704D01*
X278761Y67762D01*
X278911Y68898D01*
X278761Y70033D01*
X278323Y71091D01*
X277626Y72000D01*
X276717Y72697D01*
X275659Y73136D01*
X274524Y73285D01*
D02*
G37*
%LPD*%
G36*
X194057Y175917D02*
X194664Y175489D01*
X194788Y175420D01*
X194901Y175366D01*
X195002Y175328D01*
X195093Y175305D01*
X195172Y175298D01*
X195110Y174498D01*
X195025Y174491D01*
X194929Y174472D01*
X194822Y174440D01*
X194705Y174396D01*
X194577Y174338D01*
X194288Y174186D01*
X193957Y173982D01*
X193775Y173861D01*
X193878Y176062D01*
X194057Y175917D01*
D02*
G37*
G36*
X212598Y173733D02*
X212418Y173878D01*
X211811Y174306D01*
X211688Y174375D01*
X211575Y174429D01*
X211473Y174467D01*
X211383Y174490D01*
X211303Y174498D01*
X211366Y175298D01*
X211451Y175304D01*
X211547Y175323D01*
X211653Y175355D01*
X211771Y175399D01*
X211899Y175457D01*
X212187Y175610D01*
X212518Y175813D01*
X212700Y175934D01*
X212598Y173733D01*
D02*
G37*
G36*
X227082Y180327D02*
X227065Y180279D01*
X227050Y180218D01*
X227037Y180144D01*
X227016Y179954D01*
X227004Y179711D01*
X227000Y179413D01*
X225000D01*
X224999Y179569D01*
X224963Y180144D01*
X224950Y180218D01*
X224935Y180279D01*
X224918Y180327D01*
X224898Y180360D01*
X227102D01*
X227082Y180327D01*
D02*
G37*
G36*
X211052Y161369D02*
X210906Y161366D01*
X210641Y161341D01*
X210523Y161319D01*
X210413Y161290D01*
X210313Y161256D01*
X210222Y161215D01*
X210139Y161168D01*
X210066Y161114D01*
X210002Y161054D01*
X209630Y163226D01*
X209981Y163369D01*
X211052Y161369D01*
D02*
G37*
G36*
X223842Y155001D02*
X223808Y155020D01*
X223761Y155037D01*
X223700Y155052D01*
X223625Y155066D01*
X223436Y155086D01*
X223192Y155098D01*
X222895Y155102D01*
Y157102D01*
X223050Y157103D01*
X223625Y157139D01*
X223700Y157152D01*
X223761Y157168D01*
X223808Y157185D01*
X223842Y157204D01*
Y155001D01*
D02*
G37*
G36*
X226044Y156259D02*
X226065Y156213D01*
X226097Y156159D01*
X226141Y156097D01*
X226260Y155949D01*
X226424Y155768D01*
X226631Y155554D01*
X225217Y154140D01*
X225107Y154250D01*
X224675Y154631D01*
X224613Y154674D01*
X224559Y154707D01*
X224513Y154728D01*
X224475Y154738D01*
X226034Y156296D01*
X226044Y156259D01*
D02*
G37*
G36*
X215632Y149650D02*
X215522Y149540D01*
X215141Y149108D01*
X215097Y149046D01*
X215065Y148992D01*
X215044Y148946D01*
X215034Y148908D01*
X213475Y150467D01*
X213513Y150477D01*
X213559Y150498D01*
X213613Y150531D01*
X213675Y150574D01*
X213823Y150693D01*
X214004Y150857D01*
X214217Y151065D01*
X215632Y149650D01*
D02*
G37*
G36*
X213863Y147738D02*
X213826Y147728D01*
X213780Y147707D01*
X213726Y147674D01*
X213664Y147631D01*
X213516Y147511D01*
X213335Y147348D01*
X213122Y147140D01*
X211707Y148555D01*
X211817Y148665D01*
X212198Y149097D01*
X212241Y149159D01*
X212274Y149213D01*
X212295Y149259D01*
X212305Y149296D01*
X213863Y147738D01*
D02*
G37*
G36*
X155673Y140332D02*
X155720Y140315D01*
X155781Y140300D01*
X155856Y140287D01*
X156045Y140266D01*
X156289Y140254D01*
X156586Y140250D01*
Y138250D01*
X156431Y138249D01*
X155856Y138213D01*
X155781Y138200D01*
X155720Y138185D01*
X155673Y138167D01*
X155639Y138148D01*
Y140352D01*
X155673Y140332D01*
D02*
G37*
G36*
X239013Y121698D02*
X239049Y121123D01*
X239062Y121048D01*
X239077Y120987D01*
X239094Y120940D01*
X239114Y120906D01*
X236910D01*
X236929Y120940D01*
X236947Y120987D01*
X236962Y121048D01*
X236975Y121123D01*
X236996Y121312D01*
X237008Y121556D01*
X237012Y121853D01*
X239012D01*
X239013Y121698D01*
D02*
G37*
G36*
X194057Y112925D02*
X194664Y112497D01*
X194788Y112428D01*
X194901Y112374D01*
X195002Y112336D01*
X195093Y112313D01*
X195172Y112305D01*
X195110Y111505D01*
X195025Y111499D01*
X194929Y111480D01*
X194822Y111448D01*
X194705Y111404D01*
X194577Y111346D01*
X194288Y111194D01*
X193957Y110990D01*
X193775Y110869D01*
X193878Y113070D01*
X194057Y112925D01*
D02*
G37*
G36*
X212598Y110741D02*
X212418Y110886D01*
X211811Y111314D01*
X211688Y111383D01*
X211575Y111437D01*
X211473Y111475D01*
X211383Y111498D01*
X211303Y111505D01*
X211366Y112305D01*
X211451Y112312D01*
X211547Y112331D01*
X211653Y112363D01*
X211771Y112407D01*
X211899Y112465D01*
X212187Y112617D01*
X212518Y112821D01*
X212700Y112942D01*
X212598Y110741D01*
D02*
G37*
G36*
X227082Y116965D02*
X227065Y116918D01*
X227050Y116857D01*
X227037Y116782D01*
X227016Y116593D01*
X227004Y116349D01*
X227000Y116052D01*
X225000D01*
X224999Y116207D01*
X224963Y116782D01*
X224950Y116857D01*
X224935Y116918D01*
X224918Y116965D01*
X224898Y116999D01*
X227102D01*
X227082Y116965D01*
D02*
G37*
G36*
X209861Y100090D02*
X209909Y100073D01*
X209970Y100058D01*
X210044Y100045D01*
X210234Y100024D01*
X210477Y100012D01*
X210775Y100008D01*
Y98008D01*
X210619Y98007D01*
X210044Y97971D01*
X209970Y97958D01*
X209909Y97943D01*
X209861Y97925D01*
X209827Y97906D01*
Y100110D01*
X209861Y100090D01*
D02*
G37*
G36*
X224863Y91746D02*
X224826Y91736D01*
X224780Y91715D01*
X224726Y91682D01*
X224664Y91639D01*
X224516Y91519D01*
X224335Y91356D01*
X224121Y91148D01*
X222707Y92562D01*
X222817Y92673D01*
X223198Y93105D01*
X223241Y93167D01*
X223274Y93221D01*
X223295Y93267D01*
X223305Y93304D01*
X224863Y91746D01*
D02*
G37*
G36*
X215632Y86658D02*
X215522Y86547D01*
X215141Y86116D01*
X215097Y86054D01*
X215065Y86000D01*
X215044Y85954D01*
X215034Y85916D01*
X213475Y87475D01*
X213513Y87485D01*
X213559Y87506D01*
X213613Y87538D01*
X213675Y87582D01*
X213823Y87701D01*
X214004Y87865D01*
X214217Y88072D01*
X215632Y86658D01*
D02*
G37*
G36*
X213863Y84746D02*
X213826Y84736D01*
X213780Y84715D01*
X213726Y84682D01*
X213664Y84639D01*
X213516Y84519D01*
X213335Y84356D01*
X213122Y84148D01*
X211707Y85562D01*
X211817Y85673D01*
X212198Y86105D01*
X212241Y86167D01*
X212274Y86221D01*
X212295Y86267D01*
X212305Y86304D01*
X213863Y84746D01*
D02*
G37*
G36*
X156861Y76082D02*
X156909Y76065D01*
X156970Y76050D01*
X157044Y76037D01*
X157234Y76016D01*
X157477Y76004D01*
X157775Y76000D01*
Y74000D01*
X157619Y73999D01*
X157044Y73963D01*
X157038Y73962D01*
X157037Y73956D01*
X157016Y73766D01*
X157004Y73523D01*
X157000Y73225D01*
X155000D01*
X154999Y73381D01*
X154963Y73956D01*
X154950Y74030D01*
X154935Y74091D01*
X154918Y74139D01*
X154898Y74173D01*
X156827D01*
Y76102D01*
X156861Y76082D01*
D02*
G37*
G36*
X289732Y150106D02*
Y149106D01*
X289625Y149080D01*
X289455Y149000D01*
X289222Y148868D01*
X288568Y148444D01*
X285829Y146458D01*
Y152754D01*
X289732Y150106D01*
D02*
G37*
G36*
X263838Y72814D02*
X263773Y72740D01*
X263711Y72653D01*
X263653Y72552D01*
X263600Y72438D01*
X263551Y72310D01*
X263506Y72170D01*
X263428Y71849D01*
X263395Y71668D01*
X263366Y71475D01*
X261795Y73020D01*
X261985Y73052D01*
X262479Y73170D01*
X262618Y73217D01*
X262744Y73268D01*
X262858Y73323D01*
X262958Y73382D01*
X263046Y73445D01*
X263121Y73511D01*
X263838Y72814D01*
D02*
G37*
D15*
X293831Y103515D02*
Y146775D01*
X291000Y149606D02*
X293831Y146775D01*
X283465Y149606D02*
X291000D01*
X189405Y193122D02*
X268406D01*
X157624Y215000D02*
X167528D01*
X283172Y178356D02*
X297569D01*
X167528Y215000D02*
X189405Y193122D01*
X268406D02*
X283172Y178356D01*
X263622Y189107D02*
X266000Y186729D01*
X108517Y189107D02*
X263622D01*
X82624Y215000D02*
X108517Y189107D01*
X262000Y71658D02*
Y71683D01*
X293831Y103515D01*
D17*
X185039Y299213D02*
X185246Y299419D01*
Y399543D01*
X184239Y620016D02*
X185870Y618384D01*
Y520516D02*
Y618384D01*
X185039Y519685D02*
X185870Y520516D01*
X181102Y755613D02*
X184747Y751968D01*
X246417Y267819D02*
X246946D01*
X245268Y268968D02*
X246417Y267819D01*
X237945Y268968D02*
X245268D01*
X237945Y315968D02*
Y379205D01*
X246417Y378055D02*
X246946D01*
X245268Y379205D02*
X246417Y378055D01*
X237945Y379205D02*
X245268D01*
X237945Y426205D02*
Y489441D01*
X246417Y488292D02*
X246946D01*
X245268Y489441D02*
X246417Y488292D01*
X237945Y489441D02*
X245268D01*
X237945Y536441D02*
Y599677D01*
X246417Y598528D02*
X246946D01*
X245268Y599677D02*
X246417Y598528D01*
X237945Y599677D02*
X245268D01*
X237945Y646677D02*
Y709913D01*
X243219D02*
X244368Y708764D01*
X237945Y709913D02*
X243219D01*
X244368Y708764D02*
X246946D01*
X147992Y267819D02*
X148521D01*
X146842Y268968D02*
X147992Y267819D01*
X139520Y268968D02*
X146842D01*
X139520Y315968D02*
Y379205D01*
X147992Y378055D02*
X148521D01*
X146842Y379205D02*
X147992Y378055D01*
X139520Y379205D02*
X146842D01*
X139520Y426205D02*
Y489441D01*
X147992Y488292D02*
X148521D01*
X146842Y489441D02*
X147992Y488292D01*
X139520Y489441D02*
X146842D01*
X139520Y536441D02*
Y599677D01*
X147992Y598528D02*
X148521D01*
X146842Y599677D02*
X147992Y598528D01*
X139520Y599677D02*
X146842D01*
X139520Y646677D02*
Y709913D01*
X140049D01*
X141198Y708764D01*
X148521D01*
X213373Y111906D02*
X213475Y111803D01*
X193102Y111906D02*
X213373D01*
X193000Y112008D02*
X193102Y111906D01*
X213373Y174898D02*
X213475Y174795D01*
X193000Y175000D02*
X193102Y174898D01*
X213373D01*
D56*
X89000Y49685D02*
D03*
D57*
Y39843D02*
D03*
D66*
X146000Y40000D02*
Y40173D01*
X156000Y50173D01*
X209000Y162369D02*
X214362D01*
X226000Y174007D01*
Y181188D01*
Y110645D02*
Y117827D01*
X214362Y99008D02*
X226000Y110645D01*
X209000Y99008D02*
X214362D01*
X203817Y139250D02*
X213669Y149102D01*
X154812Y139250D02*
X203817D01*
X213669Y149102D02*
X220669Y156102D01*
X224669D01*
X238012Y142760D01*
Y120078D02*
Y142760D01*
X217574Y90015D02*
X221574D01*
X213669Y86110D02*
X217574Y90015D01*
X221574D02*
X224669Y93110D01*
X202559Y75000D02*
X213669Y86110D01*
X156000Y75000D02*
X202559D01*
X156000Y50173D02*
Y75000D01*
D83*
X82624Y215000D02*
D03*
X232624D02*
D03*
X157624D02*
D03*
D84*
X15748Y49213D02*
D03*
D85*
X40157D02*
D03*
D86*
X28543Y30906D02*
D03*
D87*
X11811Y98425D02*
D03*
X31496Y108268D02*
D03*
Y118110D02*
D03*
Y88583D02*
D03*
Y78740D02*
D03*
X11811Y161417D02*
D03*
X31496Y171260D02*
D03*
Y181102D02*
D03*
Y151575D02*
D03*
Y141732D02*
D03*
X283465Y149606D02*
D03*
Y139764D02*
D03*
Y110236D02*
D03*
Y120079D02*
D03*
X303150Y129921D02*
D03*
D88*
X285193Y80984D02*
D03*
Y29252D02*
D03*
D89*
X274524Y68898D02*
D03*
Y59055D02*
D03*
Y51181D02*
D03*
D90*
Y41339D02*
D03*
D91*
X58000Y53843D02*
D03*
D92*
Y43843D02*
D03*
X211693Y773622D02*
D03*
Y746063D02*
D03*
Y718504D02*
D03*
Y690945D02*
D03*
X113268Y773622D02*
D03*
Y746063D02*
D03*
Y718504D02*
D03*
Y690945D02*
D03*
Y663386D02*
D03*
Y635827D02*
D03*
Y608268D02*
D03*
Y580709D02*
D03*
X211693Y663386D02*
D03*
Y635827D02*
D03*
Y608268D02*
D03*
Y580709D02*
D03*
Y553150D02*
D03*
Y525591D02*
D03*
Y498031D02*
D03*
Y470472D02*
D03*
X113268Y553150D02*
D03*
Y525591D02*
D03*
Y498031D02*
D03*
Y470472D02*
D03*
Y442913D02*
D03*
Y415354D02*
D03*
Y387795D02*
D03*
Y360236D02*
D03*
X211693Y442913D02*
D03*
Y415354D02*
D03*
Y387795D02*
D03*
Y360236D02*
D03*
Y332677D02*
D03*
Y305118D02*
D03*
Y277559D02*
D03*
Y250000D02*
D03*
X113268Y332677D02*
D03*
Y305118D02*
D03*
Y277559D02*
D03*
Y250000D02*
D03*
D93*
X116339Y92567D02*
D03*
X74606D02*
D03*
X116339Y155559D02*
D03*
X74606D02*
D03*
D94*
X105315Y120126D02*
D03*
Y183118D02*
D03*
D95*
X85630Y120126D02*
D03*
X95472D02*
D03*
X85630Y183118D02*
D03*
X95472D02*
D03*
D96*
X201693Y773622D02*
D03*
Y746063D02*
D03*
Y718504D02*
D03*
Y690945D02*
D03*
X103268Y773622D02*
D03*
Y746063D02*
D03*
Y718504D02*
D03*
Y690945D02*
D03*
Y663386D02*
D03*
Y635827D02*
D03*
Y608268D02*
D03*
Y580709D02*
D03*
X201693Y663386D02*
D03*
Y635827D02*
D03*
Y608268D02*
D03*
Y580709D02*
D03*
Y553150D02*
D03*
Y525591D02*
D03*
Y498031D02*
D03*
Y470472D02*
D03*
X103268Y553150D02*
D03*
Y525591D02*
D03*
Y498031D02*
D03*
Y470472D02*
D03*
Y442913D02*
D03*
Y415354D02*
D03*
Y387795D02*
D03*
Y360236D02*
D03*
X201693Y442913D02*
D03*
Y415354D02*
D03*
Y387795D02*
D03*
Y360236D02*
D03*
Y332677D02*
D03*
Y305118D02*
D03*
Y277559D02*
D03*
Y250000D02*
D03*
X103268Y332677D02*
D03*
Y305118D02*
D03*
Y277559D02*
D03*
Y250000D02*
D03*
D97*
X271654Y354331D02*
D03*
Y688976D02*
D03*
X43307D02*
D03*
Y354331D02*
D03*
X299213Y196850D02*
D03*
X15748D02*
D03*
X299213Y15748D02*
D03*
X15748D02*
D03*
D98*
X146000Y40000D02*
D03*
X267717Y702756D02*
D03*
X192732Y161146D02*
D03*
X192063Y98834D02*
D03*
X246946Y267819D02*
D03*
X148521D02*
D03*
X297569Y178356D02*
D03*
X266000Y186729D02*
D03*
X281496Y663386D02*
D03*
Y673228D02*
D03*
X267717D02*
D03*
X281496Y710630D02*
D03*
Y702756D02*
D03*
Y730315D02*
D03*
Y738189D02*
D03*
X279528Y734252D02*
D03*
X281496Y620079D02*
D03*
Y627953D02*
D03*
X279528Y624016D02*
D03*
X281496Y517717D02*
D03*
X279528Y513779D02*
D03*
X281496Y509842D02*
D03*
Y409449D02*
D03*
Y401575D02*
D03*
X279528Y291339D02*
D03*
X271654Y244094D02*
D03*
Y255906D02*
D03*
Y267717D02*
D03*
X279528Y295276D02*
D03*
Y334646D02*
D03*
X267717Y374016D02*
D03*
X279528D02*
D03*
Y405512D02*
D03*
Y437008D02*
D03*
X267717D02*
D03*
X279528Y452756D02*
D03*
X267717D02*
D03*
Y468504D02*
D03*
X279528D02*
D03*
Y484252D02*
D03*
X267717D02*
D03*
X262000Y71658D02*
D03*
X226000Y181188D02*
D03*
Y117827D02*
D03*
X154812Y139250D02*
D03*
X156000Y75000D02*
D03*
X238012Y120078D02*
D03*
X146000Y58000D02*
D03*
X185039Y299213D02*
D03*
X185246Y399543D02*
D03*
X185039Y519685D02*
D03*
X184239Y620016D02*
D03*
X148521Y735252D02*
D03*
X158520Y756913D02*
D03*
X139520Y767717D02*
D03*
Y756913D02*
D03*
X246946Y735252D02*
D03*
X256945Y756913D02*
D03*
X237945Y646677D02*
D03*
X246946Y625016D02*
D03*
X256945Y646677D02*
D03*
X158520D02*
D03*
X148521Y625016D02*
D03*
X139520Y646677D02*
D03*
Y536441D02*
D03*
X148521Y514779D02*
D03*
X158520Y536441D02*
D03*
X256945D02*
D03*
X237945D02*
D03*
X246946Y514779D02*
D03*
X237945Y426205D02*
D03*
Y315968D02*
D03*
X139520D02*
D03*
Y426205D02*
D03*
X158520D02*
D03*
X148521Y404543D02*
D03*
X256945Y426205D02*
D03*
X246946Y404543D02*
D03*
X256945Y315968D02*
D03*
X246946Y294307D02*
D03*
X158520Y315968D02*
D03*
X148521Y294307D02*
D03*
X63551Y71453D02*
D03*
X260669Y102110D02*
D03*
X128169Y73702D02*
D03*
X145669Y110110D02*
D03*
X213475Y111803D02*
D03*
X193000Y112008D02*
D03*
X209000Y99008D02*
D03*
X124669Y109110D02*
D03*
X213669Y86110D02*
D03*
X163669Y87110D02*
D03*
X163000Y98008D02*
D03*
X141669Y97110D02*
D03*
X225000Y88008D02*
D03*
X224669Y93110D02*
D03*
X63551Y134445D02*
D03*
X163000Y161000D02*
D03*
X163669Y150102D02*
D03*
X209000Y162000D02*
D03*
X193000Y175000D02*
D03*
X213475Y174795D02*
D03*
X225000Y151000D02*
D03*
X260669Y165102D02*
D03*
X237945Y709913D02*
D03*
X246946Y708764D02*
D03*
X139520Y709913D02*
D03*
X148521Y708764D02*
D03*
X139520Y599677D02*
D03*
X148521Y598528D02*
D03*
X237945Y599677D02*
D03*
X246946Y598528D02*
D03*
X237945Y489441D02*
D03*
X246946Y488292D02*
D03*
X139520Y489441D02*
D03*
X148521Y488292D02*
D03*
X139520Y379205D02*
D03*
X148521Y378055D02*
D03*
X237945Y379205D02*
D03*
X246946Y378055D02*
D03*
X237945Y268968D02*
D03*
X145669Y173102D02*
D03*
X139520Y268968D02*
D03*
X141669Y160102D02*
D03*
X213669Y149102D02*
D03*
X224669Y156102D02*
D03*
X128169Y136694D02*
D03*
X124669Y172102D02*
D03*
D99*
X36677Y196590D02*
Y216968D01*
X23477Y183390D02*
X36677Y196590D01*
X23477Y50165D02*
Y183390D01*
X82377Y35937D02*
X86282Y39843D01*
X37705Y35937D02*
X82377D01*
X23477Y50165D02*
X37705Y35937D01*
X86282Y39843D02*
X89000D01*
X134048Y762245D02*
X139491Y767688D01*
X92713Y762245D02*
X134048D01*
X78740Y748272D02*
X92713Y762245D01*
X78740Y256398D02*
X78740Y748272D01*
X52169Y203453D02*
Y229827D01*
X78740Y256398D01*
X139491Y756942D02*
X139520Y756913D01*
X139491Y756942D02*
Y767688D01*
D100*
X274217Y692221D02*
D03*
D101*
X274217Y354500D02*
D03*
M02*
