G04*
G04 #@! TF.GenerationSoftware,Altium Limited,Altium Designer,23.10.1 (27)*
G04*
G04 Layer_Color=8421504*
%FSLAX25Y25*%
%MOIN*%
G70*
G04*
G04 #@! TF.SameCoordinates,DEC2BE8A-3C9D-4CA9-A4ED-9AED73E2F86B*
G04*
G04*
G04 #@! TF.FilePolarity,Positive*
G04*
G01*
G75*
%ADD20R,0.26772X0.21850*%
%ADD21R,0.09449X0.03937*%
%ADD22R,0.05118X0.05512*%
%ADD23R,0.03543X0.03937*%
%ADD24R,0.06496X0.04724*%
%ADD25R,0.05512X0.05118*%
%ADD26R,0.03937X0.03543*%
%ADD27R,0.01968X0.03150*%
%ADD28R,0.03740X0.03347*%
%ADD29R,0.05709X0.02362*%
%ADD30R,0.03543X0.03740*%
%ADD31R,0.03347X0.03740*%
%ADD32R,0.03740X0.03543*%
D20*
X243000Y50000D02*
D03*
X114431Y49047D02*
D03*
D21*
X217803Y41024D02*
D03*
Y58976D02*
D03*
X139627Y58024D02*
D03*
Y40071D02*
D03*
D22*
X197850Y59000D02*
D03*
X204150D02*
D03*
X197850Y41000D02*
D03*
X204150D02*
D03*
X157299Y57843D02*
D03*
X151000D02*
D03*
X157150Y39843D02*
D03*
X150850D02*
D03*
D23*
X80657Y35843D02*
D03*
X75343D02*
D03*
X80658Y42843D02*
D03*
X75343D02*
D03*
X266602Y756913D02*
D03*
X261287D02*
D03*
X168177D02*
D03*
X162862D02*
D03*
X168177Y646677D02*
D03*
X162862D02*
D03*
X266602D02*
D03*
X261287D02*
D03*
X266602Y536441D02*
D03*
X261287D02*
D03*
X168177D02*
D03*
X162862D02*
D03*
X168177Y426205D02*
D03*
X162862D02*
D03*
X266602D02*
D03*
X261287D02*
D03*
X266602Y315968D02*
D03*
X261287D02*
D03*
X168177D02*
D03*
X162862D02*
D03*
X238012Y115110D02*
D03*
X243327D02*
D03*
X156012Y71110D02*
D03*
X161327D02*
D03*
X238012Y178102D02*
D03*
X243327D02*
D03*
X156012Y134102D02*
D03*
X161327D02*
D03*
D24*
X77000Y50331D02*
D03*
Y61354D02*
D03*
X226378Y768110D02*
D03*
Y779134D02*
D03*
Y740551D02*
D03*
Y751575D02*
D03*
Y712992D02*
D03*
Y724016D02*
D03*
Y685433D02*
D03*
Y696456D02*
D03*
X127953Y768110D02*
D03*
Y779134D02*
D03*
Y740551D02*
D03*
Y751575D02*
D03*
Y712992D02*
D03*
Y724016D02*
D03*
Y685433D02*
D03*
Y696456D02*
D03*
Y657874D02*
D03*
Y668898D02*
D03*
Y630315D02*
D03*
Y641339D02*
D03*
Y602756D02*
D03*
Y613779D02*
D03*
Y575197D02*
D03*
Y586220D02*
D03*
X226378Y657874D02*
D03*
Y668898D02*
D03*
Y630315D02*
D03*
Y641339D02*
D03*
Y602756D02*
D03*
Y613779D02*
D03*
Y575197D02*
D03*
Y586220D02*
D03*
Y547638D02*
D03*
Y558661D02*
D03*
Y520079D02*
D03*
Y531102D02*
D03*
Y492520D02*
D03*
Y503543D02*
D03*
Y464961D02*
D03*
Y475984D02*
D03*
X127953Y547638D02*
D03*
Y558661D02*
D03*
Y520079D02*
D03*
Y531102D02*
D03*
Y492520D02*
D03*
Y503543D02*
D03*
Y464961D02*
D03*
Y475984D02*
D03*
Y437402D02*
D03*
Y448425D02*
D03*
Y409842D02*
D03*
Y420866D02*
D03*
Y382283D02*
D03*
Y393307D02*
D03*
Y354724D02*
D03*
Y365748D02*
D03*
X226378Y437402D02*
D03*
Y448425D02*
D03*
Y409842D02*
D03*
Y420866D02*
D03*
Y382283D02*
D03*
Y393307D02*
D03*
Y354724D02*
D03*
Y365748D02*
D03*
Y327165D02*
D03*
Y338189D02*
D03*
Y299606D02*
D03*
Y310630D02*
D03*
Y272047D02*
D03*
Y283071D02*
D03*
Y244488D02*
D03*
Y255512D02*
D03*
X127953Y244488D02*
D03*
Y255512D02*
D03*
Y272047D02*
D03*
Y283071D02*
D03*
Y299606D02*
D03*
Y310630D02*
D03*
Y327165D02*
D03*
Y338189D02*
D03*
D25*
X59669Y91260D02*
D03*
Y84961D02*
D03*
Y154252D02*
D03*
Y147953D02*
D03*
X184669Y108260D02*
D03*
Y101961D02*
D03*
X185669Y75961D02*
D03*
Y82260D02*
D03*
X184669Y171252D02*
D03*
Y164953D02*
D03*
X185669Y138953D02*
D03*
Y145252D02*
D03*
D26*
X58669Y71453D02*
D03*
Y76768D02*
D03*
Y134445D02*
D03*
Y139760D02*
D03*
D27*
X51669Y91654D02*
D03*
Y84567D02*
D03*
Y154646D02*
D03*
Y147559D02*
D03*
X260669Y90567D02*
D03*
Y97654D02*
D03*
Y153559D02*
D03*
Y160646D02*
D03*
D28*
X237945Y747354D02*
D03*
Y752472D02*
D03*
Y736354D02*
D03*
Y741472D02*
D03*
Y725354D02*
D03*
Y730472D02*
D03*
Y714354D02*
D03*
Y719472D02*
D03*
X139520Y747354D02*
D03*
Y752472D02*
D03*
Y736354D02*
D03*
Y741472D02*
D03*
Y725354D02*
D03*
Y730472D02*
D03*
Y714354D02*
D03*
Y719472D02*
D03*
Y637118D02*
D03*
Y642236D02*
D03*
Y626118D02*
D03*
Y631236D02*
D03*
Y615118D02*
D03*
Y620236D02*
D03*
Y604118D02*
D03*
Y609236D02*
D03*
X237945Y637118D02*
D03*
Y642236D02*
D03*
Y626118D02*
D03*
Y631236D02*
D03*
Y615118D02*
D03*
Y620236D02*
D03*
Y604118D02*
D03*
Y609236D02*
D03*
Y526882D02*
D03*
Y532000D02*
D03*
Y515882D02*
D03*
Y521000D02*
D03*
Y504882D02*
D03*
Y510000D02*
D03*
Y493882D02*
D03*
Y499000D02*
D03*
X139520Y526882D02*
D03*
Y532000D02*
D03*
Y515882D02*
D03*
Y521000D02*
D03*
Y504882D02*
D03*
Y510000D02*
D03*
Y493882D02*
D03*
Y499000D02*
D03*
Y416646D02*
D03*
Y421764D02*
D03*
Y405646D02*
D03*
Y410764D02*
D03*
Y394646D02*
D03*
Y399764D02*
D03*
Y383646D02*
D03*
Y388764D02*
D03*
X237945Y416646D02*
D03*
Y421764D02*
D03*
Y405646D02*
D03*
Y410764D02*
D03*
Y394646D02*
D03*
Y399764D02*
D03*
Y383646D02*
D03*
Y388764D02*
D03*
Y306409D02*
D03*
Y311528D02*
D03*
Y295409D02*
D03*
Y300528D02*
D03*
Y284409D02*
D03*
Y289528D02*
D03*
Y273409D02*
D03*
Y278528D02*
D03*
X139520Y306409D02*
D03*
Y311528D02*
D03*
Y295409D02*
D03*
Y300528D02*
D03*
Y284409D02*
D03*
Y289528D02*
D03*
Y273409D02*
D03*
Y278528D02*
D03*
X176669Y102551D02*
D03*
Y107669D02*
D03*
X135168Y83261D02*
D03*
Y78143D02*
D03*
X128169Y83261D02*
D03*
Y78143D02*
D03*
X138669Y102551D02*
D03*
Y107669D02*
D03*
X220669Y102551D02*
D03*
Y107669D02*
D03*
Y90551D02*
D03*
Y95669D02*
D03*
X145669Y114071D02*
D03*
Y119189D02*
D03*
X51669Y76669D02*
D03*
Y71551D02*
D03*
X138669Y114071D02*
D03*
Y119189D02*
D03*
X192669Y102551D02*
D03*
Y107669D02*
D03*
X184669Y89551D02*
D03*
Y94669D02*
D03*
X131669Y102551D02*
D03*
Y107669D02*
D03*
X199669Y102551D02*
D03*
Y107669D02*
D03*
X213476Y107567D02*
D03*
Y102449D02*
D03*
X131669Y114071D02*
D03*
Y119189D02*
D03*
X206669Y107669D02*
D03*
Y102551D02*
D03*
X176669Y81669D02*
D03*
Y76551D02*
D03*
X124669Y114071D02*
D03*
Y119189D02*
D03*
X213669Y95669D02*
D03*
Y90551D02*
D03*
X260669Y77551D02*
D03*
Y82670D02*
D03*
X176669Y94669D02*
D03*
Y89551D02*
D03*
X176669Y165543D02*
D03*
Y170661D02*
D03*
X135169Y146253D02*
D03*
Y141135D02*
D03*
X128169Y146253D02*
D03*
Y141135D02*
D03*
X138669Y165543D02*
D03*
Y170661D02*
D03*
X220669Y165543D02*
D03*
Y170661D02*
D03*
Y153543D02*
D03*
Y158661D02*
D03*
X145669Y177063D02*
D03*
Y182181D02*
D03*
X51669Y139661D02*
D03*
Y134543D02*
D03*
X138669Y177063D02*
D03*
Y182181D02*
D03*
X192669Y165543D02*
D03*
Y170661D02*
D03*
X184669Y152543D02*
D03*
Y157661D02*
D03*
X131669Y165543D02*
D03*
Y170661D02*
D03*
X199669Y165543D02*
D03*
Y170661D02*
D03*
X213475Y170559D02*
D03*
Y165441D02*
D03*
X131669Y177063D02*
D03*
Y182181D02*
D03*
X206669Y170661D02*
D03*
Y165543D02*
D03*
X176669Y144661D02*
D03*
Y139543D02*
D03*
X124669Y177063D02*
D03*
Y182181D02*
D03*
X213669Y158661D02*
D03*
Y153543D02*
D03*
X260669Y140543D02*
D03*
Y145661D02*
D03*
X176669Y157661D02*
D03*
Y152543D02*
D03*
D29*
X274161Y720252D02*
D03*
Y725252D02*
D03*
Y730252D02*
D03*
Y735252D02*
D03*
Y740252D02*
D03*
Y745252D02*
D03*
Y750252D02*
D03*
X252705Y720252D02*
D03*
Y725252D02*
D03*
Y730252D02*
D03*
Y735252D02*
D03*
Y740252D02*
D03*
Y745252D02*
D03*
Y750252D02*
D03*
X175736Y720252D02*
D03*
Y725252D02*
D03*
Y730252D02*
D03*
Y735252D02*
D03*
Y740252D02*
D03*
Y745252D02*
D03*
Y750252D02*
D03*
X154280Y720252D02*
D03*
Y725252D02*
D03*
Y730252D02*
D03*
Y735252D02*
D03*
Y740252D02*
D03*
Y745252D02*
D03*
Y750252D02*
D03*
X175736Y610016D02*
D03*
Y615016D02*
D03*
Y620016D02*
D03*
Y625016D02*
D03*
Y630016D02*
D03*
Y635016D02*
D03*
Y640016D02*
D03*
X154280Y610016D02*
D03*
Y615016D02*
D03*
Y620016D02*
D03*
Y625016D02*
D03*
Y630016D02*
D03*
Y635016D02*
D03*
Y640016D02*
D03*
X274161Y610016D02*
D03*
Y615016D02*
D03*
Y620016D02*
D03*
Y625016D02*
D03*
Y630016D02*
D03*
Y635016D02*
D03*
Y640016D02*
D03*
X252705Y610016D02*
D03*
Y615016D02*
D03*
Y620016D02*
D03*
Y625016D02*
D03*
Y630016D02*
D03*
Y635016D02*
D03*
Y640016D02*
D03*
X274161Y499779D02*
D03*
Y504779D02*
D03*
Y509779D02*
D03*
Y514779D02*
D03*
Y519779D02*
D03*
Y524779D02*
D03*
Y529779D02*
D03*
X252705Y499779D02*
D03*
Y504779D02*
D03*
Y509779D02*
D03*
Y514779D02*
D03*
Y519779D02*
D03*
Y524779D02*
D03*
Y529779D02*
D03*
X175736Y499779D02*
D03*
Y504779D02*
D03*
Y509779D02*
D03*
Y514779D02*
D03*
Y519779D02*
D03*
Y524779D02*
D03*
Y529779D02*
D03*
X154280Y499779D02*
D03*
Y504779D02*
D03*
Y509779D02*
D03*
Y514779D02*
D03*
Y519779D02*
D03*
Y524779D02*
D03*
Y529779D02*
D03*
X175736Y389543D02*
D03*
Y394543D02*
D03*
Y399543D02*
D03*
Y404543D02*
D03*
Y409543D02*
D03*
Y414543D02*
D03*
Y419543D02*
D03*
X154280Y389543D02*
D03*
Y394543D02*
D03*
Y399543D02*
D03*
Y404543D02*
D03*
Y409543D02*
D03*
Y414543D02*
D03*
Y419543D02*
D03*
X274161Y389543D02*
D03*
Y394543D02*
D03*
Y399543D02*
D03*
Y404543D02*
D03*
Y409543D02*
D03*
Y414543D02*
D03*
Y419543D02*
D03*
X252705Y389543D02*
D03*
Y394543D02*
D03*
Y399543D02*
D03*
Y404543D02*
D03*
Y409543D02*
D03*
Y414543D02*
D03*
Y419543D02*
D03*
X274161Y279307D02*
D03*
Y284307D02*
D03*
Y289307D02*
D03*
Y294307D02*
D03*
Y299307D02*
D03*
Y304307D02*
D03*
Y309307D02*
D03*
X252705Y279307D02*
D03*
Y284307D02*
D03*
Y289307D02*
D03*
Y294307D02*
D03*
Y299307D02*
D03*
Y304307D02*
D03*
Y309307D02*
D03*
X175736Y279307D02*
D03*
Y284307D02*
D03*
Y289307D02*
D03*
Y294307D02*
D03*
Y299307D02*
D03*
Y304307D02*
D03*
Y309307D02*
D03*
X154280Y279307D02*
D03*
Y284307D02*
D03*
Y289307D02*
D03*
Y294307D02*
D03*
Y299307D02*
D03*
Y304307D02*
D03*
Y309307D02*
D03*
X229941Y108110D02*
D03*
Y103110D02*
D03*
Y98110D02*
D03*
Y93110D02*
D03*
Y88110D02*
D03*
Y83110D02*
D03*
Y78110D02*
D03*
X251398Y108110D02*
D03*
Y103110D02*
D03*
Y98110D02*
D03*
Y93110D02*
D03*
Y88110D02*
D03*
Y83110D02*
D03*
Y78110D02*
D03*
X146941Y107110D02*
D03*
Y102110D02*
D03*
Y97110D02*
D03*
Y92110D02*
D03*
Y87110D02*
D03*
Y82110D02*
D03*
Y77110D02*
D03*
X168398Y107110D02*
D03*
Y102110D02*
D03*
Y97110D02*
D03*
Y92110D02*
D03*
Y87110D02*
D03*
Y82110D02*
D03*
Y77110D02*
D03*
X229941Y171102D02*
D03*
Y166102D02*
D03*
Y161102D02*
D03*
Y156102D02*
D03*
Y151102D02*
D03*
Y146102D02*
D03*
Y141102D02*
D03*
X251398Y171102D02*
D03*
Y166102D02*
D03*
Y161102D02*
D03*
Y156102D02*
D03*
Y151102D02*
D03*
Y146102D02*
D03*
Y141102D02*
D03*
X146941Y170102D02*
D03*
Y165102D02*
D03*
Y160102D02*
D03*
Y155102D02*
D03*
Y150102D02*
D03*
Y145102D02*
D03*
Y140102D02*
D03*
X168398Y170102D02*
D03*
Y165102D02*
D03*
Y160102D02*
D03*
Y155102D02*
D03*
Y150102D02*
D03*
Y145102D02*
D03*
Y140102D02*
D03*
D30*
X157674Y118384D02*
D03*
X170075D02*
D03*
X177674D02*
D03*
X190075D02*
D03*
X157624Y180531D02*
D03*
X170026D02*
D03*
X177624D02*
D03*
X190026D02*
D03*
D31*
X222228Y78110D02*
D03*
X217110D02*
D03*
X222228Y141102D02*
D03*
X217110D02*
D03*
D32*
X205669Y95311D02*
D03*
Y82910D02*
D03*
X196669Y95311D02*
D03*
Y82910D02*
D03*
X205669Y158303D02*
D03*
Y145902D02*
D03*
X196669Y158303D02*
D03*
Y145902D02*
D03*
M02*
