G04*
G04 #@! TF.GenerationSoftware,Altium Limited,Altium Designer,23.10.1 (27)*
G04*
G04 Layer_Color=8388736*
%FSLAX25Y25*%
%MOIN*%
G70*
G04*
G04 #@! TF.SameCoordinates,DEC2BE8A-3C9D-4CA9-A4ED-9AED73E2F86B*
G04*
G04*
G04 #@! TF.FilePolarity,Positive*
G04*
G01*
G75*
%ADD15C,0.01000*%
D15*
X67045Y13111D02*
Y17110D01*
X69044D01*
X69710Y16443D01*
Y15110D01*
X69044Y14444D01*
X67045D01*
X71043Y17110D02*
Y13111D01*
X73709D01*
X75042D02*
Y15777D01*
X76375Y17110D01*
X77708Y15777D01*
Y13111D01*
Y15110D01*
X75042D01*
X81707Y16443D02*
X81040Y17110D01*
X79707D01*
X79041Y16443D01*
Y13777D01*
X79707Y13111D01*
X81040D01*
X81707Y13777D01*
X85705Y17110D02*
X83039D01*
Y13111D01*
X85705D01*
X83039Y15110D02*
X84372D01*
X91037Y17110D02*
Y16443D01*
X92370Y15110D01*
X93703Y16443D01*
Y17110D01*
X92370Y15110D02*
Y13111D01*
X97035Y17110D02*
X95702D01*
X95036Y16443D01*
Y13777D01*
X95702Y13111D01*
X97035D01*
X97701Y13777D01*
Y16443D01*
X97035Y17110D01*
X99034D02*
Y13777D01*
X99701Y13111D01*
X101034D01*
X101700Y13777D01*
Y17110D01*
X103033Y13111D02*
Y17110D01*
X105032D01*
X105699Y16443D01*
Y15110D01*
X105032Y14444D01*
X103033D01*
X104366D02*
X105699Y13111D01*
X67045Y5912D02*
Y9911D01*
X68378Y8578D01*
X69710Y9911D01*
Y5912D01*
X71043D02*
Y8578D01*
X72376Y9911D01*
X73709Y8578D01*
Y5912D01*
Y7912D01*
X71043D01*
X75042Y5912D02*
Y9911D01*
X77041D01*
X77708Y9245D01*
Y7912D01*
X77041Y7245D01*
X75042D01*
X76375D02*
X77708Y5912D01*
X79041Y9911D02*
Y5912D01*
Y7245D01*
X81707Y9911D01*
X79707Y7912D01*
X81707Y5912D01*
X83039Y9911D02*
X84372D01*
X83706D01*
Y5912D01*
X83039D01*
X84372D01*
X86372D02*
Y9911D01*
X89038Y5912D01*
Y9911D01*
X93036Y9245D02*
X92370Y9911D01*
X91037D01*
X90371Y9245D01*
Y6579D01*
X91037Y5912D01*
X92370D01*
X93036Y6579D01*
Y7912D01*
X91703D01*
X97035Y9245D02*
X96368Y9911D01*
X95036D01*
X94369Y9245D01*
Y8578D01*
X95036Y7912D01*
X96368D01*
X97035Y7245D01*
Y6579D01*
X96368Y5912D01*
X95036D01*
X94369Y6579D01*
X106365Y9911D02*
Y5912D01*
Y7912D01*
X109031D01*
Y9911D01*
Y5912D01*
X113030Y9911D02*
X110364D01*
Y5912D01*
X113030D01*
X110364Y7912D02*
X111697D01*
X114363Y5912D02*
Y9911D01*
X116362D01*
X117028Y9245D01*
Y7912D01*
X116362Y7245D01*
X114363D01*
X115696D02*
X117028Y5912D01*
X121027Y9911D02*
X118361D01*
Y5912D01*
X121027D01*
X118361Y7912D02*
X119694D01*
X200032Y13369D02*
Y17368D01*
X202031D01*
X202697Y16702D01*
Y15369D01*
X202031Y14702D01*
X200032D01*
X204030Y17368D02*
Y13369D01*
X206696D01*
X208029D02*
Y16035D01*
X209362Y17368D01*
X210695Y16035D01*
Y13369D01*
Y15369D01*
X208029D01*
X214693Y16702D02*
X214027Y17368D01*
X212694D01*
X212028Y16702D01*
Y14036D01*
X212694Y13369D01*
X214027D01*
X214693Y14036D01*
X218692Y17368D02*
X216026D01*
Y13369D01*
X218692D01*
X216026Y15369D02*
X217359D01*
X224024Y17368D02*
Y16702D01*
X225357Y15369D01*
X226690Y16702D01*
Y17368D01*
X225357Y15369D02*
Y13369D01*
X230022Y17368D02*
X228689D01*
X228023Y16702D01*
Y14036D01*
X228689Y13369D01*
X230022D01*
X230688Y14036D01*
Y16702D01*
X230022Y17368D01*
X232021D02*
Y14036D01*
X232688Y13369D01*
X234021D01*
X234687Y14036D01*
Y17368D01*
X236020Y13369D02*
Y17368D01*
X238019D01*
X238686Y16702D01*
Y15369D01*
X238019Y14702D01*
X236020D01*
X237353D02*
X238686Y13369D01*
X200032Y6171D02*
Y10170D01*
X201364Y8837D01*
X202697Y10170D01*
Y6171D01*
X204030D02*
Y8837D01*
X205363Y10170D01*
X206696Y8837D01*
Y6171D01*
Y8170D01*
X204030D01*
X208029Y6171D02*
Y10170D01*
X210028D01*
X210695Y9503D01*
Y8170D01*
X210028Y7504D01*
X208029D01*
X209362D02*
X210695Y6171D01*
X212028Y10170D02*
Y6171D01*
Y7504D01*
X214693Y10170D01*
X212694Y8170D01*
X214693Y6171D01*
X216026Y10170D02*
X217359D01*
X216693D01*
Y6171D01*
X216026D01*
X217359D01*
X219359D02*
Y10170D01*
X222024Y6171D01*
Y10170D01*
X226023Y9503D02*
X225357Y10170D01*
X224024D01*
X223357Y9503D01*
Y6837D01*
X224024Y6171D01*
X225357D01*
X226023Y6837D01*
Y8170D01*
X224690D01*
X230022Y9503D02*
X229356Y10170D01*
X228023D01*
X227356Y9503D01*
Y8837D01*
X228023Y8170D01*
X229356D01*
X230022Y7504D01*
Y6837D01*
X229356Y6171D01*
X228023D01*
X227356Y6837D01*
X239352Y10170D02*
Y6171D01*
Y8170D01*
X242018D01*
Y10170D01*
Y6171D01*
X246017Y10170D02*
X243351D01*
Y6171D01*
X246017D01*
X243351Y8170D02*
X244684D01*
X247350Y6171D02*
Y10170D01*
X249349D01*
X250015Y9503D01*
Y8170D01*
X249349Y7504D01*
X247350D01*
X248683D02*
X250015Y6171D01*
X254014Y10170D02*
X251348D01*
Y6171D01*
X254014D01*
X251348Y8170D02*
X252681D01*
M02*
